<?xml version="1.0" encoding="UTF-8" standalone="no"?>
<!-- Created with Inkscape (http://www.inkscape.org/) -->

<svg
   width="145.91325mm"
   height="92.865074mm"
   viewBox="0 0 145.91325 92.865074"
   version="1.1"
   id="svg1"
   xml:space="preserve"
   inkscape:version="1.3.2 (091e20ef0f, 2023-11-25)"
   sodipodi:docname="feed-fees.svg"
   xmlns:inkscape="http://www.inkscape.org/namespaces/inkscape"
   xmlns:sodipodi="http://sodipodi.sourceforge.net/DTD/sodipodi-0.dtd"
   xmlns="http://www.w3.org/2000/svg"
   xmlns:svg="http://www.w3.org/2000/svg"><sodipodi:namedview
     id="namedview1"
     pagecolor="#ffffff"
     bordercolor="#666666"
     borderopacity="1.0"
     inkscape:showpageshadow="2"
     inkscape:pageopacity="0.0"
     inkscape:pagecheckerboard="0"
     inkscape:deskcolor="#d1d1d1"
     inkscape:document-units="mm"
     showgrid="true"
     inkscape:zoom="2.9505836"
     inkscape:cx="137.43044"
     inkscape:cy="140.48068"
     inkscape:window-width="3383"
     inkscape:window-height="1384"
     inkscape:window-x="0"
     inkscape:window-y="33"
     inkscape:window-maximized="1"
     inkscape:current-layer="g1"><inkscape:grid
       id="grid1"
       units="px"
       originx="-28.389281"
       originy="-9.8235774"
       spacingx="0.26458333"
       spacingy="0.26458334"
       empcolor="#0099e5"
       empopacity="0.30196078"
       color="#0099e5"
       opacity="0.14901961"
       empspacing="5"
       dotted="false"
       gridanglex="30"
       gridanglez="30"
       visible="true" /><inkscape:page
       x="0"
       y="0"
       width="145.91325"
       height="92.865074"
       id="page1"
       margin="0"
       bleed="0" /><inkscape:page
       x="191.61072"
       y="-9.8235769"
       width="162.56"
       height="121.92"
       id="page2"
       margin="0"
       bleed="0" /></sodipodi:namedview><defs
     id="defs1"><marker
       style="overflow:visible"
       id="marker79"
       refX="0"
       refY="0"
       orient="auto-start-reverse"
       inkscape:stockid="Rounded arrow"
       markerWidth="1"
       markerHeight="1"
       viewBox="0 0 1 1"
       inkscape:isstock="true"
       inkscape:collect="always"
       preserveAspectRatio="xMidYMid"><path
         transform="scale(0.7)"
         d="m -0.21114562,-4.1055728 6.42229122,3.21114561 a 1,1 90 0 1 0,1.78885438 L -0.21114562,4.1055728 A 1.236068,1.236068 31.717474 0 1 -2,3 v -6 a 1.236068,1.236068 148.28253 0 1 1.78885438,-1.1055728 z"
         style="fill:context-stroke;fill-rule:evenodd;stroke:none"
         id="path79" /></marker><marker
       style="overflow:visible"
       id="RoundedArrow"
       refX="0"
       refY="0"
       orient="auto-start-reverse"
       inkscape:stockid="Rounded arrow"
       markerWidth="1"
       markerHeight="1"
       viewBox="0 0 1 1"
       inkscape:isstock="true"
       inkscape:collect="always"
       preserveAspectRatio="xMidYMid"><path
         transform="scale(0.7)"
         d="m -0.21114562,-4.1055728 6.42229122,3.21114561 a 1,1 90 0 1 0,1.78885438 L -0.21114562,4.1055728 A 1.236068,1.236068 31.717474 0 1 -2,3 v -6 a 1.236068,1.236068 148.28253 0 1 1.78885438,-1.1055728 z"
         style="fill:context-stroke;fill-rule:evenodd;stroke:none"
         id="path76" /></marker><clipPath
       clipPathUnits="userSpaceOnUse"
       id="clipPath4"><path
         d="M 51.05,41.96 H 442.035 V 334.8 H 51.05 Z"
         id="path4" /></clipPath><clipPath
       clipPathUnits="userSpaceOnUse"
       id="clipPath6"><path
         d="M 51.05,41.96 H 442.035 V 334.8 H 51.05 Z"
         id="path6" /></clipPath><clipPath
       clipPathUnits="userSpaceOnUse"
       id="clipPath8"><path
         d="M -1021,-463 H 1794 V 1233 H -1021 Z"
         transform="translate(-2.5000006e-5,2.5000006e-4)"
         id="path8" /></clipPath><clipPath
       clipPathUnits="userSpaceOnUse"
       id="clipPath11"><path
         d="M 51.05,41.96 H 442.035 V 334.8 H 51.05 Z"
         id="path11" /></clipPath><clipPath
       clipPathUnits="userSpaceOnUse"
       id="clipPath13"><path
         d="M -1021,-463 H 1794 V 1233 H -1021 Z"
         transform="translate(2.5000006e-4,2.5000006e-4)"
         id="path13" /></clipPath><clipPath
       clipPathUnits="userSpaceOnUse"
       id="clipPath16"><path
         d="M 51.05,41.96 H 442.035 V 334.8 H 51.05 Z"
         id="path16" /></clipPath><clipPath
       clipPathUnits="userSpaceOnUse"
       id="clipPath18"><path
         d="M -1021,-463 H 1794 V 1233 H -1021 Z"
         transform="translate(0,2.5000006e-4)"
         id="path18" /></clipPath><clipPath
       clipPathUnits="userSpaceOnUse"
       id="clipPath21"><path
         d="M 51.05,41.96 H 442.035 V 334.8 H 51.05 Z"
         id="path21" /></clipPath><clipPath
       clipPathUnits="userSpaceOnUse"
       id="clipPath23"><path
         d="M -1021,-463 H 1794 V 1233 H -1021 Z"
         transform="translate(-2.5000006e-4,2.5000006e-4)"
         id="path23" /></clipPath><clipPath
       clipPathUnits="userSpaceOnUse"
       id="clipPath26"><path
         d="M 51.05,41.96 H 442.035 V 334.8 H 51.05 Z"
         id="path26" /></clipPath><clipPath
       clipPathUnits="userSpaceOnUse"
       id="clipPath29"><path
         d="M 51.05,41.96 H 442.035 V 334.8 H 51.05 Z"
         id="path29" /></clipPath><clipPath
       clipPathUnits="userSpaceOnUse"
       id="clipPath32"><path
         d="M 51.05,41.96 H 442.035 V 334.8 H 51.05 Z"
         id="path32" /></clipPath><clipPath
       clipPathUnits="userSpaceOnUse"
       id="clipPath35"><path
         d="M 51.05,41.96 H 442.035 V 334.8 H 51.05 Z"
         id="path35" /></clipPath><clipPath
       clipPathUnits="userSpaceOnUse"
       id="clipPath38"><path
         d="M 51.05,41.96 H 442.035 V 334.8 H 51.05 Z"
         id="path38" /></clipPath><clipPath
       clipPathUnits="userSpaceOnUse"
       id="clipPath41"><path
         d="M 51.05,41.96 H 442.035 V 334.8 H 51.05 Z"
         id="path41" /></clipPath><clipPath
       clipPathUnits="userSpaceOnUse"
       id="clipPath44"><path
         d="M 51.05,41.96 H 442.035 V 334.8 H 51.05 Z"
         id="path44" /></clipPath><clipPath
       clipPathUnits="userSpaceOnUse"
       id="clipPath47"><path
         d="M 51.05,41.96 H 442.035 V 334.8 H 51.05 Z"
         id="path47" /></clipPath><clipPath
       clipPathUnits="userSpaceOnUse"
       id="clipPath50"><path
         d="M 51.05,41.96 H 442.035 V 334.8 H 51.05 Z"
         id="path50" /></clipPath><clipPath
       clipPathUnits="userSpaceOnUse"
       id="clipPath67"><path
         d="M 51.05,41.96 H 442.035 V 334.8 H 51.05 Z"
         id="path67" /></clipPath><clipPath
       clipPathUnits="userSpaceOnUse"
       id="clipPath69"><path
         d="M 51.05,41.96 H 442.035 V 334.8 H 51.05 Z"
         id="path69" /></clipPath></defs><g
     inkscape:label="Layer 1"
     inkscape:groupmode="layer"
     id="layer1"
     transform="translate(-28.389281,-9.8235776)" /><g
     id="g1"
     inkscape:groupmode="layer"
     inkscape:label="1"
     transform="matrix(0.26458333,0,0,0.26458334,191.61073,-9.8235776)"><g
       id="g2"
       transform="matrix(0.39062501,0,0,0.39062501,-418.21486,131.70833)"><path
         id="path1"
         d="m -749.05167,656.39999 h 614.39999 V 195.6 h -614.39999 z"
         style="fill:#ffffff;fill-opacity:1;fill-rule:nonzero;stroke:none;stroke-width:1.33333" /><path
         id="path2"
         d="m -680.985,600.45332 h 521.31332 V 210 H -680.985 Z"
         style="fill:#ffffff;fill-opacity:1;fill-rule:nonzero;stroke:none;stroke-width:1.33333" /><path
         id="path3"
         d="m 280.75369,260.87622 -9.77463,-8.72139 v 5.92834 H 207.444 v 5.48327 h 63.53506 v 5.1004 z"
         style="fill:#f08080;fill-opacity:1;fill-rule:nonzero;stroke:#f08080;stroke-width:1;stroke-linecap:butt;stroke-linejoin:miter;stroke-miterlimit:10;stroke-dasharray:none;stroke-opacity:1"
         transform="matrix(1.3333333,0,0,-1.3333333,-749.05167,656.39999)"
         clip-path="url(#clipPath4)" /><path
         id="path5"
         d="M 51.05,41.96 V 334.8"
         style="fill:none;stroke:#b0b0b0;stroke-width:0.8;stroke-linecap:square;stroke-linejoin:round;stroke-miterlimit:10;stroke-dasharray:none;stroke-opacity:1"
         transform="matrix(1.3333333,0,0,-1.3333333,-749.05167,656.39999)"
         clip-path="url(#clipPath6)" /><path
         id="path7"
         d="m -680.985,600.45332 v 4.66667"
         style="fill:#000000;fill-opacity:1;fill-rule:nonzero;stroke:#000000;stroke-width:1.06667;stroke-linecap:butt;stroke-linejoin:round;stroke-miterlimit:10;stroke-dasharray:none;stroke-opacity:1" /><text
         id="text7"
         xml:space="preserve"
         x="-686.00061"
         y="619.91168"
         style="font-size:16px;stroke-width:1.33333"><tspan
           style="font-variant:normal;font-weight:normal;font-size:13.3333px;font-family:'DejaVu Sans';writing-mode:lr-tb;fill:#000000;fill-opacity:1;fill-rule:nonzero;stroke:none;stroke-width:1.33333"
           x="-686.00061 -677.52063 -673.28064"
           y="619.91168"
           sodipodi:role="line"
           id="tspan7">2.0</tspan></text><g
         id="g9"
         transform="translate(-749.05167,195.59999)"><path
           d="M 106,355 H 732 V 272 H 106 Z"
           style="fill:#000000;fill-opacity:1;fill-rule:nonzero;stroke:none"
           transform="matrix(0.01333333,0,0,-0.01333333,51.879167,424.31167)"
           clip-path="url(#clipPath8)"
           id="path9" /></g><path
         id="path10"
         d="M 99.923125,41.96 V 334.8"
         style="fill:none;stroke:#b0b0b0;stroke-width:0.8;stroke-linecap:square;stroke-linejoin:round;stroke-miterlimit:10;stroke-dasharray:none;stroke-opacity:1"
         transform="matrix(1.3333333,0,0,-1.3333333,-749.05167,656.39999)"
         clip-path="url(#clipPath11)" /><path
         id="path12"
         d="m -615.82084,600.45332 v 4.66667"
         style="fill:#000000;fill-opacity:1;fill-rule:nonzero;stroke:#000000;stroke-width:1.06667;stroke-linecap:butt;stroke-linejoin:round;stroke-miterlimit:10;stroke-dasharray:none;stroke-opacity:1" /><text
         id="text12"
         xml:space="preserve"
         x="-620.83649"
         y="619.91168"
         style="font-size:16px;stroke-width:1.33333"><tspan
           style="font-variant:normal;font-weight:normal;font-size:13.3333px;font-family:'DejaVu Sans';writing-mode:lr-tb;fill:#000000;fill-opacity:1;fill-rule:nonzero;stroke:none;stroke-width:1.33333"
           x="-620.83649 -612.35645 -608.11646"
           y="619.91168"
           sodipodi:role="line"
           id="tspan12">1.5</tspan></text><g
         id="g14"
         transform="translate(-749.05167,195.59999)"><path
           d="M 106,355 H 732 V 272 H 106 Z"
           style="fill:#000000;fill-opacity:1;fill-rule:nonzero;stroke:none"
           transform="matrix(0.01333333,0,0,-0.01333333,117.04333,424.31167)"
           clip-path="url(#clipPath13)"
           id="path14" /></g><path
         id="path15"
         d="M 148.79625,41.96 V 334.8"
         style="fill:none;stroke:#b0b0b0;stroke-width:0.8;stroke-linecap:square;stroke-linejoin:round;stroke-miterlimit:10;stroke-dasharray:none;stroke-opacity:1"
         transform="matrix(1.3333333,0,0,-1.3333333,-749.05167,656.39999)"
         clip-path="url(#clipPath16)" /><path
         id="path17"
         d="m -550.65667,600.45332 v 4.66667"
         style="fill:#000000;fill-opacity:1;fill-rule:nonzero;stroke:#000000;stroke-width:1.06667;stroke-linecap:butt;stroke-linejoin:round;stroke-miterlimit:10;stroke-dasharray:none;stroke-opacity:1" /><text
         id="text17"
         xml:space="preserve"
         x="-555.6723"
         y="619.91168"
         style="font-size:16px;stroke-width:1.33333"><tspan
           style="font-variant:normal;font-weight:normal;font-size:13.3333px;font-family:'DejaVu Sans';writing-mode:lr-tb;fill:#000000;fill-opacity:1;fill-rule:nonzero;stroke:none;stroke-width:1.33333"
           x="-555.6723 -547.19232 -542.95227"
           y="619.91168"
           sodipodi:role="line"
           id="tspan17">1.0</tspan></text><g
         id="g19"
         transform="translate(-749.05167,195.59999)"><path
           d="M 106,355 H 732 V 272 H 106 Z"
           style="fill:#000000;fill-opacity:1;fill-rule:nonzero;stroke:none"
           transform="matrix(0.01333333,0,0,-0.01333333,182.2075,424.31167)"
           clip-path="url(#clipPath18)"
           id="path19" /></g><path
         id="path20"
         d="M 197.66937,41.96 V 334.8"
         style="fill:none;stroke:#b0b0b0;stroke-width:0.8;stroke-linecap:square;stroke-linejoin:round;stroke-miterlimit:10;stroke-dasharray:none;stroke-opacity:1"
         transform="matrix(1.3333333,0,0,-1.3333333,-749.05167,656.39999)"
         clip-path="url(#clipPath21)" /><path
         id="path22"
         d="m -485.49252,600.45332 v 4.66667"
         style="fill:#000000;fill-opacity:1;fill-rule:nonzero;stroke:#000000;stroke-width:1.06667;stroke-linecap:butt;stroke-linejoin:round;stroke-miterlimit:10;stroke-dasharray:none;stroke-opacity:1" /><text
         id="text22"
         xml:space="preserve"
         x="-490.50812"
         y="619.91168"
         style="font-size:16px;stroke-width:1.33333"><tspan
           style="font-variant:normal;font-weight:normal;font-size:13.3333px;font-family:'DejaVu Sans';writing-mode:lr-tb;fill:#000000;fill-opacity:1;fill-rule:nonzero;stroke:none;stroke-width:1.33333"
           x="-490.50812 -482.02814 -477.78812"
           y="619.91168"
           sodipodi:role="line"
           id="tspan22">0.5</tspan></text><g
         id="g24"
         transform="translate(-749.05167,195.59999)"><path
           d="M 106,355 H 732 V 272 H 106 Z"
           style="fill:#000000;fill-opacity:1;fill-rule:nonzero;stroke:none"
           transform="matrix(0.01333333,0,0,-0.01333333,247.37167,424.31167)"
           clip-path="url(#clipPath23)"
           id="path24" /></g><path
         id="path25"
         d="M 246.5425,41.96 V 334.8"
         style="fill:none;stroke:#b0b0b0;stroke-width:0.8;stroke-linecap:square;stroke-linejoin:round;stroke-miterlimit:10;stroke-dasharray:none;stroke-opacity:1"
         transform="matrix(1.3333333,0,0,-1.3333333,-749.05167,656.39999)"
         clip-path="url(#clipPath26)" /><path
         id="path27"
         d="m -420.32834,600.45332 v 4.66667"
         style="fill:#000000;fill-opacity:1;fill-rule:nonzero;stroke:#000000;stroke-width:1.06667;stroke-linecap:butt;stroke-linejoin:round;stroke-miterlimit:10;stroke-dasharray:none;stroke-opacity:1" /><text
         id="text27"
         xml:space="preserve"
         x="-430.9325"
         y="619.91168"
         style="font-size:16px;stroke-width:1.33333"><tspan
           style="font-variant:normal;font-weight:normal;font-size:13.3333px;font-family:'DejaVu Sans';writing-mode:lr-tb;fill:#000000;fill-opacity:1;fill-rule:nonzero;stroke:none;stroke-width:1.33333"
           x="-430.9325 -422.45248 -418.21249"
           y="619.91168"
           sodipodi:role="line"
           id="tspan27">0.0</tspan></text><path
         id="path28"
         d="M 295.41562,41.96 V 334.8"
         style="fill:none;stroke:#b0b0b0;stroke-width:0.8;stroke-linecap:square;stroke-linejoin:round;stroke-miterlimit:10;stroke-dasharray:none;stroke-opacity:1"
         transform="matrix(1.3333333,0,0,-1.3333333,-749.05167,656.39999)"
         clip-path="url(#clipPath29)" /><path
         id="path30"
         d="m -355.16419,600.45332 v 4.66667"
         style="fill:#000000;fill-opacity:1;fill-rule:nonzero;stroke:#000000;stroke-width:1.06667;stroke-linecap:butt;stroke-linejoin:round;stroke-miterlimit:10;stroke-dasharray:none;stroke-opacity:1" /><text
         id="text30"
         xml:space="preserve"
         x="-365.76834"
         y="619.91168"
         style="font-size:16px;stroke-width:1.33333"><tspan
           style="font-variant:normal;font-weight:normal;font-size:13.3333px;font-family:'DejaVu Sans';writing-mode:lr-tb;fill:#000000;fill-opacity:1;fill-rule:nonzero;stroke:none;stroke-width:1.33333"
           x="-365.76834 -357.28833 -353.04834"
           y="619.91168"
           sodipodi:role="line"
           id="tspan30">0.5</tspan></text><path
         id="path31"
         d="M 344.28875,41.96 V 334.8"
         style="fill:none;stroke:#b0b0b0;stroke-width:0.8;stroke-linecap:square;stroke-linejoin:round;stroke-miterlimit:10;stroke-dasharray:none;stroke-opacity:1"
         transform="matrix(1.3333333,0,0,-1.3333333,-749.05167,656.39999)"
         clip-path="url(#clipPath32)" /><path
         id="path33"
         d="m -290.00001,600.45332 v 4.66667"
         style="fill:#000000;fill-opacity:1;fill-rule:nonzero;stroke:#000000;stroke-width:1.06667;stroke-linecap:butt;stroke-linejoin:round;stroke-miterlimit:10;stroke-dasharray:none;stroke-opacity:1" /><text
         id="text33"
         xml:space="preserve"
         x="-300.60416"
         y="619.91168"
         style="font-size:16px;stroke-width:1.33333"><tspan
           style="font-variant:normal;font-weight:normal;font-size:13.3333px;font-family:'DejaVu Sans';writing-mode:lr-tb;fill:#000000;fill-opacity:1;fill-rule:nonzero;stroke:none;stroke-width:1.33333"
           x="-300.60416 -292.12418 -287.88416"
           y="619.91168"
           sodipodi:role="line"
           id="tspan33">1.0</tspan></text><path
         id="path34"
         d="M 393.16187,41.96 V 334.8"
         style="fill:none;stroke:#b0b0b0;stroke-width:0.8;stroke-linecap:square;stroke-linejoin:round;stroke-miterlimit:10;stroke-dasharray:none;stroke-opacity:1"
         transform="matrix(1.3333333,0,0,-1.3333333,-749.05167,656.39999)"
         clip-path="url(#clipPath35)" /><path
         id="path36"
         d="m -224.83586,600.45332 v 4.66667"
         style="fill:#000000;fill-opacity:1;fill-rule:nonzero;stroke:#000000;stroke-width:1.06667;stroke-linecap:butt;stroke-linejoin:round;stroke-miterlimit:10;stroke-dasharray:none;stroke-opacity:1" /><text
         id="text36"
         xml:space="preserve"
         x="-235.44"
         y="619.91168"
         style="font-size:16px;stroke-width:1.33333"><tspan
           style="font-variant:normal;font-weight:normal;font-size:13.3333px;font-family:'DejaVu Sans';writing-mode:lr-tb;fill:#000000;fill-opacity:1;fill-rule:nonzero;stroke:none;stroke-width:1.33333"
           x="-235.44 -226.95999 -222.72"
           y="619.91168"
           sodipodi:role="line"
           id="tspan36">1.5</tspan></text><path
         id="path37"
         d="M 442.035,41.96 V 334.8"
         style="fill:none;stroke:#b0b0b0;stroke-width:0.8;stroke-linecap:square;stroke-linejoin:round;stroke-miterlimit:10;stroke-dasharray:none;stroke-opacity:1"
         transform="matrix(1.3333333,0,0,-1.3333333,-749.05167,656.39999)"
         clip-path="url(#clipPath38)" /><path
         id="path39"
         d="m -159.67168,600.45332 v 4.66667"
         style="fill:#000000;fill-opacity:1;fill-rule:nonzero;stroke:#000000;stroke-width:1.06667;stroke-linecap:butt;stroke-linejoin:round;stroke-miterlimit:10;stroke-dasharray:none;stroke-opacity:1" /><text
         id="text39"
         xml:space="preserve"
         x="-170.27583"
         y="619.91168"
         style="font-size:16px;stroke-width:1.33333"><tspan
           style="font-variant:normal;font-weight:normal;font-size:13.3333px;font-family:'DejaVu Sans';writing-mode:lr-tb;fill:#000000;fill-opacity:1;fill-rule:nonzero;stroke:none;stroke-width:1.33333"
           x="-170.27583 -161.79584 -157.55583"
           y="619.91168"
           sodipodi:role="line"
           id="tspan39">2.0</tspan></text><text
         id="text40"
         xml:space="preserve"
         x="-466.85959"
         y="638.14081"
         style="font-size:16px;stroke-width:1.33333"><tspan
           style="font-variant:normal;font-weight:normal;font-size:13.3333px;font-family:'DejaVu Sans';writing-mode:lr-tb;fill:#000000;fill-opacity:1;fill-rule:nonzero;stroke:none;stroke-width:1.33333"
           x="-466.85959 -459.04877 -453.56876 -449.86209 -442.52875 -434.32877 -430.08875 -423.14209 -414.68875 -410.98209 -406.51791 -401.29126 -397.05127 -391.85126 -379.1846"
           y="638.14081"
           sodipodi:role="line"
           id="tspan40">Price shift (%)</tspan></text><path
         id="path40"
         d="M 51.05,108.91889 H 442.035"
         style="fill:none;stroke:#b0b0b0;stroke-width:0.8;stroke-linecap:square;stroke-linejoin:round;stroke-miterlimit:10;stroke-dasharray:none;stroke-opacity:1"
         transform="matrix(1.3333333,0,0,-1.3333333,-749.05167,656.39999)"
         clip-path="url(#clipPath41)" /><path
         id="path42"
         d="m -680.985,511.17481 h -4.66667"
         style="fill:#000000;fill-opacity:1;fill-rule:nonzero;stroke:#000000;stroke-width:1.06667;stroke-linecap:butt;stroke-linejoin:round;stroke-miterlimit:10;stroke-dasharray:none;stroke-opacity:1" /><text
         id="text42"
         xml:space="preserve"
         x="-698.79749"
         y="516.2373"
         style="font-size:16px;stroke-width:1.33333"><tspan
           style="font-variant:normal;font-weight:normal;font-size:13.3333px;font-family:'DejaVu Sans';writing-mode:lr-tb;fill:#000000;fill-opacity:1;fill-rule:nonzero;stroke:none;stroke-width:1.33333"
           x="-698.79749"
           y="516.2373"
           id="tspan42">5</tspan></text><path
         id="path43"
         d="M 51.05,159.57133 H 442.035"
         style="fill:none;stroke:#b0b0b0;stroke-width:0.8;stroke-linecap:square;stroke-linejoin:round;stroke-miterlimit:10;stroke-dasharray:none;stroke-opacity:1"
         transform="matrix(1.3333333,0,0,-1.3333333,-749.05167,656.39999)"
         clip-path="url(#clipPath44)" /><path
         id="path45"
         d="m -680.985,443.63822 h -4.66667"
         style="fill:#000000;fill-opacity:1;fill-rule:nonzero;stroke:#000000;stroke-width:1.06667;stroke-linecap:butt;stroke-linejoin:round;stroke-miterlimit:10;stroke-dasharray:none;stroke-opacity:1" /><text
         id="text45"
         xml:space="preserve"
         x="-707.27667"
         y="448.70071"
         style="font-size:16px;stroke-width:1.33333"><tspan
           style="font-variant:normal;font-weight:normal;font-size:13.3333px;font-family:'DejaVu Sans';writing-mode:lr-tb;fill:#000000;fill-opacity:1;fill-rule:nonzero;stroke:none;stroke-width:1.33333"
           x="-707.27667 -698.79669"
           y="448.70071"
           sodipodi:role="line"
           id="tspan45">10</tspan></text><path
         id="path46"
         d="M 51.05,277.18267 H 442.035"
         style="fill:none;stroke:#b0b0b0;stroke-width:0.8;stroke-linecap:square;stroke-linejoin:round;stroke-miterlimit:10;stroke-dasharray:none;stroke-opacity:1"
         transform="matrix(1.3333333,0,0,-1.3333333,-749.05167,656.39999)"
         clip-path="url(#clipPath47)" /><path
         id="path48"
         d="m -680.985,286.82311 h -4.66667"
         style="fill:#000000;fill-opacity:1;fill-rule:nonzero;stroke:#000000;stroke-width:1.06667;stroke-linecap:butt;stroke-linejoin:round;stroke-miterlimit:10;stroke-dasharray:none;stroke-opacity:1" /><text
         id="text48"
         xml:space="preserve"
         x="-707.27667"
         y="291.88559"
         style="font-size:16px;stroke-width:1.33333"><tspan
           style="font-variant:normal;font-weight:normal;font-size:13.3333px;font-family:'DejaVu Sans';writing-mode:lr-tb;fill:#000000;fill-opacity:1;fill-rule:nonzero;stroke:none;stroke-width:1.33333"
           x="-707.27667 -698.79669"
           y="291.88559"
           sodipodi:role="line"
           id="tspan48">50</tspan></text><path
         id="path49"
         d="M 51.05,327.83511 H 442.035"
         style="fill:none;stroke:#b0b0b0;stroke-width:0.8;stroke-linecap:square;stroke-linejoin:round;stroke-miterlimit:10;stroke-dasharray:none;stroke-opacity:1"
         transform="matrix(1.3333333,0,0,-1.3333333,-749.05167,656.39999)"
         clip-path="url(#clipPath50)" /><path
         id="path51"
         d="m -680.985,219.28652 h -4.66667"
         style="fill:#000000;fill-opacity:1;fill-rule:nonzero;stroke:#000000;stroke-width:1.06667;stroke-linecap:butt;stroke-linejoin:round;stroke-miterlimit:10;stroke-dasharray:none;stroke-opacity:1" /><text
         id="text51"
         xml:space="preserve"
         x="-715.75586"
         y="224.34901"
         style="font-size:16px;stroke-width:1.33333"><tspan
           style="font-variant:normal;font-weight:normal;font-size:13.3333px;font-family:'DejaVu Sans';writing-mode:lr-tb;fill:#000000;fill-opacity:1;fill-rule:nonzero;stroke:none;stroke-width:1.33333"
           x="-715.75586 -707.27582 -698.79584"
           y="224.34901"
           sodipodi:role="line"
           id="tspan51">100</tspan></text><path
         id="path52"
         d="m -680.985,600.45332 h -2.66667"
         style="fill:#000000;fill-opacity:1;fill-rule:nonzero;stroke:#000000;stroke-width:0.8;stroke-linecap:butt;stroke-linejoin:round;stroke-miterlimit:10;stroke-dasharray:none;stroke-opacity:1" /><path
         id="path53"
         d="m -680.985,560.94695 h -2.66667"
         style="fill:#000000;fill-opacity:1;fill-rule:nonzero;stroke:#000000;stroke-width:0.8;stroke-linecap:butt;stroke-linejoin:round;stroke-miterlimit:10;stroke-dasharray:none;stroke-opacity:1" /><path
         id="path54"
         d="m -680.985,532.91673 h -2.66667"
         style="fill:#000000;fill-opacity:1;fill-rule:nonzero;stroke:#000000;stroke-width:0.8;stroke-linecap:butt;stroke-linejoin:round;stroke-miterlimit:10;stroke-dasharray:none;stroke-opacity:1" /><path
         id="path55"
         d="m -680.985,493.41035 h -2.66667"
         style="fill:#000000;fill-opacity:1;fill-rule:nonzero;stroke:#000000;stroke-width:0.8;stroke-linecap:butt;stroke-linejoin:round;stroke-miterlimit:10;stroke-dasharray:none;stroke-opacity:1" /><path
         id="path56"
         d="m -680.985,478.39074 h -2.66667"
         style="fill:#000000;fill-opacity:1;fill-rule:nonzero;stroke:#000000;stroke-width:0.8;stroke-linecap:butt;stroke-linejoin:round;stroke-miterlimit:10;stroke-dasharray:none;stroke-opacity:1" /><path
         id="path57"
         d="m -680.985,465.38014 h -2.66667"
         style="fill:#000000;fill-opacity:1;fill-rule:nonzero;stroke:#000000;stroke-width:0.8;stroke-linecap:butt;stroke-linejoin:round;stroke-miterlimit:10;stroke-dasharray:none;stroke-opacity:1" /><path
         id="path58"
         d="m -680.985,453.904 h -2.66667"
         style="fill:#000000;fill-opacity:1;fill-rule:nonzero;stroke:#000000;stroke-width:0.8;stroke-linecap:butt;stroke-linejoin:round;stroke-miterlimit:10;stroke-dasharray:none;stroke-opacity:1" /><path
         id="path59"
         d="m -680.985,376.10162 h -2.66667"
         style="fill:#000000;fill-opacity:1;fill-rule:nonzero;stroke:#000000;stroke-width:0.8;stroke-linecap:butt;stroke-linejoin:round;stroke-miterlimit:10;stroke-dasharray:none;stroke-opacity:1" /><path
         id="path60"
         d="m -680.985,336.59525 h -2.66667"
         style="fill:#000000;fill-opacity:1;fill-rule:nonzero;stroke:#000000;stroke-width:0.8;stroke-linecap:butt;stroke-linejoin:round;stroke-miterlimit:10;stroke-dasharray:none;stroke-opacity:1" /><path
         id="path61"
         d="m -680.985,308.56504 h -2.66667"
         style="fill:#000000;fill-opacity:1;fill-rule:nonzero;stroke:#000000;stroke-width:0.8;stroke-linecap:butt;stroke-linejoin:round;stroke-miterlimit:10;stroke-dasharray:none;stroke-opacity:1" /><path
         id="path62"
         d="m -680.985,269.05867 h -2.66667"
         style="fill:#000000;fill-opacity:1;fill-rule:nonzero;stroke:#000000;stroke-width:0.8;stroke-linecap:butt;stroke-linejoin:round;stroke-miterlimit:10;stroke-dasharray:none;stroke-opacity:1" /><path
         id="path63"
         d="m -680.985,254.03904 h -2.66667"
         style="fill:#000000;fill-opacity:1;fill-rule:nonzero;stroke:#000000;stroke-width:0.8;stroke-linecap:butt;stroke-linejoin:round;stroke-miterlimit:10;stroke-dasharray:none;stroke-opacity:1" /><path
         id="path64"
         d="m -680.985,241.02844 h -2.66667"
         style="fill:#000000;fill-opacity:1;fill-rule:nonzero;stroke:#000000;stroke-width:0.8;stroke-linecap:butt;stroke-linejoin:round;stroke-miterlimit:10;stroke-dasharray:none;stroke-opacity:1" /><path
         id="path65"
         d="m -680.985,229.55229 h -2.66667"
         style="fill:#000000;fill-opacity:1;fill-rule:nonzero;stroke:#000000;stroke-width:0.8;stroke-linecap:butt;stroke-linejoin:round;stroke-miterlimit:10;stroke-dasharray:none;stroke-opacity:1" /><text
         id="text65"
         xml:space="preserve"
         transform="rotate(-90)"
         x="-497.96625"
         y="-723.85999"
         style="font-size:16px;stroke-width:1.33333"><tspan
           style="font-variant:normal;font-weight:normal;font-size:13.3333px;font-family:'DejaVu Sans';writing-mode:lr-tb;fill:#000000;fill-opacity:1;fill-rule:nonzero;stroke:none;stroke-width:1.33333"
           x="-497.96625 -490.53958 -486.83292 -478.36624 -469.9129 -466.20624 -457.73956 -454.0329 -448.80624 -440.9129 -436.67291 -428.20624 -420.00623 -411.55292 -404.60626 -400.89957 -395.67291 -387.77957 -383.53958 -378.33957 -370.44626 -362.55292 -354.83292 -350.59293 -342.13959 -333.68625 -329.97958 -324.7529 -317.80624"
           y="-723.85999"
           sodipodi:role="line"
           id="tspan65">Liquidity density (xyk units)</tspan></text><path
         id="path66"
         d="m 50.997269,65.065206 8.636616,3.453397 7.78928,3.350145 7.438655,3.437082 7.094818,3.524661 6.758247,3.613493 6.060142,3.482083 5.775573,3.561836 5.49805,3.642112 5.2278,3.722695 4.9651,3.80304 4.7101,3.88507 4.46299,3.96655 4.2239,4.04855 3.99295,4.13051 3.77019,4.21346 3.5557,4.29573 3.34948,4.3783 3.34211,4.74241 3.12852,4.8351 2.92474,4.92861 2.88545,5.31883 2.67922,5.42126 2.61666,5.8344 2.29008,5.62936 2.22995,6.0499 2.15259,6.48466 2.06006,6.93324 1.95466,7.39322 1.83892,7.86374 1.71549,8.33886 1.58711,8.80759 1.56106,9.98059 1.4936,11.12502 1.35644,11.80896 1.43682,14.70262 1.64303,19.57849 1.47291,16.95554 0.59219,4.4189 0.37921,1.4141 0.23856,0.22128 0.18731,-0.20903 0.17097,-0.46195 0.31146,-1.52317 0.44668,-3.45504 0.79302,-8.66344 3.15039,-37.9496 1.39223,-13.47011 1.47639,-12.12168 1.45716,-10.25252 1.60922,-9.78808 1.61965,-8.58811 1.73782,-8.10592 1.84903,-7.62685 2.04841,-7.49249 2.26507,-7.34852 2.26235,-6.55049 2.34169,-6.1063 2.54188,-5.99085 2.60435,-5.56561 2.80664,-5.45662 2.8467,-5.05383 3.04698,-4.95661 3.25714,-4.85754 3.26642,-4.48259 3.69353,-4.66535 3.69495,-4.30016 3.91556,-4.2123 4.14454,-4.12395 4.38183,-4.03646 4.62735,-3.948031 4.88102,-3.859815 4.81344,-3.539652 5.39509,-3.690569 5.67176,-3.603156 5.95586,-3.516718 6.24717,-3.430506 6.54539,-3.344599 6.85023,-3.258817 7.16138,-3.174243 7.95653,-3.280352 8.32119,-3.186158 8.69202,-3.092469 9.61379,-3.173729 10.04191,-3.071005 10.47538,-2.969703 11.53267,-3.025838 11.38001,-2.765334 12.49523,-2.813688 13.69162,-2.846606 14.24608,-2.730405 12.54577,-2.2316 v 0"
         style="fill:none;stroke:#808080;stroke-width:1.5;stroke-linecap:butt;stroke-linejoin:round;stroke-miterlimit:10;stroke-dasharray:5.55, 2.4;stroke-dashoffset:0;stroke-opacity:1"
         transform="matrix(1.3333333,0,0,-1.3333333,-749.05167,656.39999)"
         clip-path="url(#clipPath67)" /><path
         id="path68"
         d="m 50.479188,35.857682 14.934132,3.000705 13.674949,2.963758 13.140058,3.069403 12.606253,3.177147 12.0748,3.286721 10.98212,3.225692 9.96848,3.149955 9.54907,3.242832 9.13481,3.33689 8.72648,3.431952 7.87271,3.329951 7.52057,3.416395 7.17508,3.50443 6.44383,3.37833 6.52528,3.67658 5.84607,3.54153 5.56675,3.621849 5.29467,3.7025 5.03006,3.783411 4.77311,3.864017 4.52403,3.94608 4.28291,4.02827 4.04992,4.11048 3.82511,4.19201 3.60855,4.27538 3.40025,4.35766 3.39381,4.72014 3.17789,4.81392 2.97181,4.90645 2.77546,4.99894 2.73538,5.39366 2.53722,5.49547 2.35008,5.5965 2.28945,6.0154 2.10519,6.12336 2.03002,6.5603 1.94069,7.00943 1.83946,7.46916 1.72875,7.93498 1.73713,9.10992 1.53007,9.22774 1.49018,10.38187 1.41343,11.48676 1.41209,13.47751 1.45094,16.25835 2.57064,29.32802 0.491,2.80986 0.30802,0.72393 0.18724,0.0157 0.22169,-0.41574 0.34504,-1.5296 0.3544,-2.56021 0.52184,-5.1347 1.16568,-14.33767 1.72892,-21.13061 1.33742,-14.00629 1.39461,-12.45969 1.44221,-11.01932 1.6135,-10.57031 1.52045,-8.6524 1.708,-8.52978 1.91532,-8.38662 1.95569,-7.5544 2.06124,-7.07989 2.15395,-6.61977 2.2315,-6.17422 2.42445,-6.05738 2.48623,-5.63055 2.68168,-5.52308 2.72229,-5.11785 2.91626,-5.01903 2.93068,-4.63483 3.11941,-4.54805 3.53048,-4.73564 3.76296,-4.6364 3.76299,-4.27287 3.98622,-4.18431 3.94724,-3.84358 4.44244,-4.014232 4.69002,-3.925668 4.94568,-3.83807 5.20932,-3.750656 5.48074,-3.663806 5.75975,-3.57615 6.04613,-3.489385 6.33963,-3.403475 6.63996,-3.318121 7.39131,-3.431456 7.74513,-3.336432 8.1059,-3.241177 8.47317,-3.147664 3.59711,-1.268577 v 0"
         style="fill:none;stroke:#000000;stroke-width:1.5;stroke-linecap:square;stroke-linejoin:round;stroke-miterlimit:10;stroke-dasharray:none;stroke-opacity:1"
         transform="matrix(1.3333333,0,0,-1.3333333,-749.05167,656.39999)"
         clip-path="url(#clipPath69)" /><path
         id="path70"
         d="M -680.985,600.45332 V 210"
         style="fill:none;stroke:#000000;stroke-width:1.06667;stroke-linecap:square;stroke-linejoin:miter;stroke-miterlimit:10;stroke-dasharray:none;stroke-opacity:1" /><path
         id="path71"
         d="M -159.67168,600.45332 V 210"
         style="fill:none;stroke:#000000;stroke-width:1.06667;stroke-linecap:square;stroke-linejoin:miter;stroke-miterlimit:10;stroke-dasharray:none;stroke-opacity:1" /><path
         id="path72"
         d="m -680.985,600.45332 h 521.31332"
         style="fill:none;stroke:#000000;stroke-width:1.06667;stroke-linecap:square;stroke-linejoin:miter;stroke-miterlimit:10;stroke-dasharray:none;stroke-opacity:1" /><path
         id="path73"
         d="m -680.985,210 h 521.31332"
         style="fill:none;stroke:#000000;stroke-width:1.06667;stroke-linecap:square;stroke-linejoin:miter;stroke-miterlimit:10;stroke-dasharray:none;stroke-opacity:1" /></g><path
       style="fill:none;stroke:#999999;stroke-width:2.89134;stroke-linecap:butt;stroke-linejoin:miter;stroke-dasharray:none;stroke-opacity:1;marker-end:url(#RoundedArrow)"
       d="m -481.49612,290.00001 h 60"
       id="path74" /><path
       style="fill:none;stroke:#999999;stroke-width:2.89134;stroke-linecap:butt;stroke-linejoin:miter;stroke-dasharray:none;stroke-opacity:1;marker-end:url(#RoundedArrow)"
       d="m -406.49612,290 c 76.28448,0 81.61032,52.93752 81.61032,76.46877"
       id="path77" /><path
       style="fill:none;stroke:#999999;stroke-width:2.89134;stroke-linecap:butt;stroke-linejoin:miter;stroke-dasharray:none;stroke-opacity:1;marker-end:url(#marker79)"
       d="m -406.49612,290.00001 c 88.83054,1e-5 89.99999,-40 89.99999,-75 0,-35 9.88585,-96.47706 -164.99999,-90.15551 -82.68744,2.98888 -95,110.1555 -95,110.1555"
       id="path78"
       sodipodi:nodetypes="cssc" /><text
       xml:space="preserve"
       style="font-size:13.3333px;line-height:1.25;font-family:'Liberation Serif';-inkscape-font-specification:'Liberation Serif'"
       x="-323.67801"
       y="328.89661"
       id="text79"><tspan
         sodipodi:role="line"
         id="tspan79"
         x="-323.67801"
         y="328.89661"
         style="font-size:13.3333px">50% for LPs and admin fees</tspan></text><text
       xml:space="preserve"
       style="font-size:13.3333px;line-height:1.25;font-family:'Liberation Serif';-inkscape-font-specification:'Liberation Serif'"
       x="-520.5202"
       y="117.32565"
       id="text79-2"><tspan
         sodipodi:role="line"
         id="tspan79-9"
         x="-520.5202"
         y="117.32565"
         style="font-size:13.3333px">50% for rebalancing the pool</tspan></text><rect
       style="fill:#f9f9f9;stroke:#1a1a1a;stroke-width:0.755906;stroke-linejoin:round;stroke-dasharray:none"
       id="rect79"
       width="102.72852"
       height="88.739586"
       x="-684.22461"
       y="125.00001" /><path
       style="fill:none;stroke:#000000;stroke-width:0.755906;stroke-linecap:butt;stroke-linejoin:miter;stroke-dasharray:none;stroke-opacity:1"
       d="M -684.22463,213.73959 -581.49612,125"
       id="path80" /><text
       xml:space="preserve"
       style="font-size:18.6667px;line-height:1.25;font-family:'Liberation Serif';-inkscape-font-specification:'Liberation Serif'"
       x="-631.53717"
       y="194.10571"
       id="text80"><tspan
         sodipodi:role="line"
         id="tspan80"
         x="-631.53717"
         y="194.10571">BTC</tspan></text><ellipse
       style="fill:#ffcc00;stroke:#ffcc00;stroke-width:2.89134;stroke-linejoin:round;stroke-dasharray:none"
       id="path82"
       cx="-644.16528"
       cy="143.28036"
       rx="33.794147"
       ry="13.774037" /><text
       xml:space="preserve"
       style="font-size:18.6667px;line-height:1.25;font-family:'Liberation Serif';-inkscape-font-specification:'Liberation Serif'"
       x="-678.67035"
       y="148.73253"
       id="text80-9"><tspan
         sodipodi:role="line"
         id="tspan80-3"
         x="-678.67035"
         y="148.73253">crvUSD*</tspan></text><path
       style="fill:none;stroke:#999999;stroke-width:2.89134;stroke-linecap:butt;stroke-linejoin:miter;stroke-dasharray:none;stroke-opacity:1"
       d="m -636.49611,130 c 0.49671,-72.918526 18.46076,-79.466773 27.44307,-79.550571 8.98232,-0.0838 37.55692,18.550565 37.55692,78.550561 0,60.00001 -5,105.00001 -5,105.00001"
       id="path81"
       sodipodi:nodetypes="cssc" /><text
       xml:space="preserve"
       style="font-size:13.3333px;line-height:1.25;font-family:'Liberation Serif';-inkscape-font-specification:'Liberation Serif'"
       x="-724.67981"
       y="46.379761"
       id="text82"><tspan
         sodipodi:role="line"
         id="tspan82"
         x="-724.67981"
         y="46.379761"
         style="font-size:13.3333px">Interest rate which crvUSD makes</tspan></text></g></svg>
