<?xml version="1.0" encoding="UTF-8" standalone="no"?>
<!-- Created with Inkscape (http://www.inkscape.org/) -->

<svg
   width="118.76076mm"
   height="85.101662mm"
   viewBox="0 0 118.76076 85.101662"
   version="1.1"
   id="svg1"
   inkscape:version="1.3.2 (091e20ef0f, 2023-11-25)"
   sodipodi:docname="sqrt.svg"
   xmlns:inkscape="http://www.inkscape.org/namespaces/inkscape"
   xmlns:sodipodi="http://sodipodi.sourceforge.net/DTD/sodipodi-0.dtd"
   xmlns="http://www.w3.org/2000/svg"
   xmlns:svg="http://www.w3.org/2000/svg">
  <sodipodi:namedview
     id="namedview1"
     pagecolor="#ffffff"
     bordercolor="#666666"
     borderopacity="1.0"
     inkscape:showpageshadow="2"
     inkscape:pageopacity="0.0"
     inkscape:pagecheckerboard="0"
     inkscape:deskcolor="#d1d1d1"
     inkscape:document-units="mm"
     showgrid="true"
     inkscape:zoom="2.9505836"
     inkscape:cx="224.53185"
     inkscape:cy="189.96242"
     inkscape:window-width="3383"
     inkscape:window-height="1384"
     inkscape:window-x="0"
     inkscape:window-y="33"
     inkscape:window-maximized="1"
     inkscape:current-layer="layer1">
    <inkscape:grid
       id="grid1"
       units="px"
       originx="-15.657503"
       originy="-31.532502"
       spacingx="0.26458333"
       spacingy="0.26458334"
       empcolor="#0099e5"
       empopacity="0.30196078"
       color="#0099e5"
       opacity="0.14901961"
       empspacing="5"
       dotted="false"
       gridanglex="30"
       gridanglez="30"
       visible="true" />
  </sodipodi:namedview>
  <defs
     id="defs1" />
  <g
     inkscape:label="Layer 1"
     inkscape:groupmode="layer"
     id="layer1"
     transform="translate(-15.657501,-31.532502)">
    <rect
       style="fill:#cccccc;stroke:#1a1a1a;stroke-width:0.435;stroke-linejoin:round;stroke-dasharray:none"
       id="rect1"
       width="27.78125"
       height="10.583333"
       x="21.166666"
       y="31.750002" />
    <text
       xml:space="preserve"
       style="font-size:4.9389px;line-height:1.25;font-family:'Liberation Serif';-inkscape-font-specification:'Liberation Serif';stroke-width:0.264583"
       x="25.135416"
       y="38.364582"
       id="text1"><tspan
         sodipodi:role="line"
         id="tspan1"
         style="stroke-width:0.264583"
         x="25.135416"
         y="38.364582">BTC/USD</tspan></text>
    <g
       inkscape:label=""
       transform="matrix(0.57075836,0,0,0.57075836,66.624856,34.675758)"
       id="g1">
      <g
         fill="#000000"
         fill-opacity="1"
         id="g13"
         transform="matrix(0.705556,0,0,0.705556,-187.375,-60.9837)">
        <g
           id="use12"
           transform="translate(265.883,93.917999)">
          <path
             d="M 0.453125,1.21875 C 0.375,1.5625 0.34375,1.625 -0.09375,1.625 c -0.109375,0 -0.21875,0 -0.21875,0.1875 0,0.078125 0.046875,0.125 0.125,0.125 0.265625,0 0.5625,-0.03125 0.828125,-0.03125 0.34375,0 0.671875,0.03125 1,0.03125 0.046875,0 0.171875,0 0.171875,-0.203125 C 1.8125,1.625 1.71875,1.625 1.578125,1.625 c -0.5,0 -0.5,-0.0625 -0.5,-0.15625 0,-0.125 0.421875,-1.75 0.484375,-2 0.125,0.296875 0.40625,0.640625 0.921875,0.640625 1.15625,0 2.40625,-1.453125 2.40625,-2.921875 0,-0.9375 -0.578125,-1.59375 -1.328125,-1.59375 -0.5,0 -0.984375,0.359375 -1.3125,0.75 -0.09375,-0.546875 -0.53125,-0.75 -0.890625,-0.75 -0.46875,0 -0.65625,0.390625 -0.734375,0.5625 C 0.4375,-3.5 0.3125,-2.90625 0.3125,-2.875 c 0,0.109375 0.09375,0.109375 0.109375,0.109375 0.109375,0 0.109375,-0.015625 0.171875,-0.234375 0.171875,-0.703125 0.375,-1.1875 0.734375,-1.1875 0.171875,0 0.3125,0.078125 0.3125,0.453125 0,0.234375 -0.03125,0.34375 -0.078125,0.515625 z m 1.75,-4.328125 C 2.265625,-3.375 2.546875,-3.65625 2.71875,-3.8125 c 0.359375,-0.296875 0.640625,-0.375 0.8125,-0.375 0.390625,0 0.640625,0.34375 0.640625,0.9375 0,0.59375 -0.328125,1.734375 -0.515625,2.109375 -0.34375,0.703125 -0.8125,1.03125 -1.1875,1.03125 C 1.8125,-0.109375 1.6875,-0.9375 1.6875,-1 c 0,-0.015625 0,-0.03125 0.03125,-0.15625 z m 0,0"
             id="path24" />
        </g>
      </g>
      <g
         fill="#000000"
         fill-opacity="1"
         id="g14"
         transform="matrix(0.705556,0,0,0.705556,-187.375,-60.9837)">
        <g
           id="use13"
           transform="translate(273.66299,93.917999)">
          <path
             d="M 7.203125,-0.3125 C 7.15625,-0.3125 7,-0.296875 6.96875,-0.296875 c -0.78125,0 -1.3125,-0.78125 -1.65625,-1.296875 -0.09375,-0.171875 -0.375,-0.578125 -0.484375,-0.75 0.25,-0.53125 0.90625,-1.765625 2.09375,-1.765625 0.078125,0 0.171875,0 0.28125,0.015625 0,-0.25 -0.015625,-0.265625 -0.03125,-0.28125 -0.078125,-0.015625 -0.21875,-0.03125 -0.3125,-0.03125 -1.265625,0 -2,1.21875 -2.25,1.71875 C 4.21875,-3.296875 4.078125,-3.515625 3.703125,-3.828125 3.09375,-4.359375 2.546875,-4.40625 2.296875,-4.40625 c -1.09375,0 -1.734375,1.109375 -1.734375,2.265625 0,1.109375 0.609375,2.25 1.703125,2.25 1.265625,0 2.015625,-1.21875 2.25,-1.71875 0.40625,0.609375 0.53125,0.828125 0.90625,1.140625 0.609375,0.53125 1.15625,0.578125 1.40625,0.578125 0.125,0 0.28125,-0.015625 0.375,-0.046875 z m -2.90625,-1.640625 c -0.234375,0.53125 -0.90625,1.78125 -2.09375,1.78125 -0.96875,0 -1.421875,-1.0625 -1.421875,-1.96875 C 0.78125,-3.125 1.328125,-4 2.15625,-4 c 0.796875,0 1.328125,0.78125 1.65625,1.296875 0.109375,0.171875 0.375,0.578125 0.484375,0.75 z m 0,0"
             id="path25" />
        </g>
      </g>
      <g
         fill="#000000"
         fill-opacity="1"
         id="g15"
         transform="matrix(0.705556,0,0,0.705556,-187.375,-60.9837)">
        <g
           id="use14"
           transform="translate(284.17899,87.223999)">
          <path
             d="m 3.875,8.515625 -1.75,-3.875 C 2.046875,4.484375 2,4.484375 1.96875,4.484375 c 0,0 -0.0625,0 -0.171875,0.078125 l -0.9375,0.71875 c -0.125,0.109375 -0.125,0.125 -0.125,0.15625 0,0.0625 0.015625,0.109375 0.09375,0.109375 0.0625,0 0.234375,-0.140625 0.34375,-0.21875 C 1.21875,5.28125 1.375,5.171875 1.484375,5.09375 l 1.96875,4.3125 C 3.515625,9.5625 3.5625,9.5625 3.65625,9.5625 c 0.15625,0 0.1875,-0.046875 0.25,-0.1875 L 8.4375,0 C 8.5,-0.140625 8.5,-0.171875 8.5,-0.203125 8.5,-0.296875 8.421875,-0.40625 8.296875,-0.40625 c -0.078125,0 -0.140625,0.0625 -0.21875,0.21875 z m 0,0"
             id="path26" />
        </g>
      </g>
      <path
         fill="none"
         stroke-width="0.398"
         stroke-linecap="butt"
         stroke-linejoin="miter"
         stroke="#000000"
         stroke-opacity="1"
         stroke-miterlimit="10"
         d="M 26.909973,0.58981323 H 42.49591"
         id="path15"
         transform="scale(0.705556)" />
      <g
         fill="#000000"
         fill-opacity="1"
         id="g16"
         transform="matrix(0.705556,0,0,0.705556,-187.375,-60.9837)">
        <g
           id="use15"
           transform="translate(292.48099,93.917999)">
          <path
             d="M 0.453125,1.21875 C 0.375,1.5625 0.34375,1.625 -0.09375,1.625 c -0.109375,0 -0.21875,0 -0.21875,0.1875 0,0.078125 0.046875,0.125 0.125,0.125 0.265625,0 0.5625,-0.03125 0.828125,-0.03125 0.34375,0 0.671875,0.03125 1,0.03125 0.046875,0 0.171875,0 0.171875,-0.203125 C 1.8125,1.625 1.71875,1.625 1.578125,1.625 c -0.5,0 -0.5,-0.0625 -0.5,-0.15625 0,-0.125 0.421875,-1.75 0.484375,-2 0.125,0.296875 0.40625,0.640625 0.921875,0.640625 1.15625,0 2.40625,-1.453125 2.40625,-2.921875 0,-0.9375 -0.578125,-1.59375 -1.328125,-1.59375 -0.5,0 -0.984375,0.359375 -1.3125,0.75 -0.09375,-0.546875 -0.53125,-0.75 -0.890625,-0.75 -0.46875,0 -0.65625,0.390625 -0.734375,0.5625 C 0.4375,-3.5 0.3125,-2.90625 0.3125,-2.875 c 0,0.109375 0.09375,0.109375 0.109375,0.109375 0.109375,0 0.109375,-0.015625 0.171875,-0.234375 0.171875,-0.703125 0.375,-1.1875 0.734375,-1.1875 0.171875,0 0.3125,0.078125 0.3125,0.453125 0,0.234375 -0.03125,0.34375 -0.078125,0.515625 z m 1.75,-4.328125 C 2.265625,-3.375 2.546875,-3.65625 2.71875,-3.8125 c 0.359375,-0.296875 0.640625,-0.375 0.8125,-0.375 0.390625,0 0.640625,0.34375 0.640625,0.9375 0,0.59375 -0.328125,1.734375 -0.515625,2.109375 -0.34375,0.703125 -0.8125,1.03125 -1.1875,1.03125 C 1.8125,-0.109375 1.6875,-0.9375 1.6875,-1 c 0,-0.015625 0,-0.03125 0.03125,-0.15625 z m 0,0"
             id="path27" />
        </g>
      </g>
      <g
         fill="#000000"
         fill-opacity="1"
         id="g18"
         transform="matrix(0.705556,0,0,0.705556,-187.375,-60.9837)">
        <g
           id="use16"
           transform="translate(297.49399,95.412003)">
          <path
             d="m 1.84375,-4.625 c 0,-0.015625 0.03125,-0.109375 0.03125,-0.109375 0,-0.046875 -0.03125,-0.109375 -0.125,-0.109375 -0.140625,0 -0.71875,0.0625 -0.890625,0.078125 -0.046875,0 -0.15625,0.015625 -0.15625,0.15625 0,0.09375 0.109375,0.09375 0.1875,0.09375 0.328125,0 0.328125,0.0625 0.328125,0.109375 0,0.046875 -0.0625,0.328125 -0.109375,0.484375 l -0.15625,0.640625 c -0.0625,0.25 -0.4375,1.765625 -0.453125,1.859375 -0.046875,0.171875 -0.046875,0.265625 -0.046875,0.34375 0,0.703125 0.453125,1.140625 1.03125,1.140625 0.875,0 1.796875,-0.9375 1.796875,-1.96875 0,-0.8125 -0.5625,-1.171875 -1.046875,-1.171875 -0.359375,0 -0.671875,0.203125 -0.875,0.390625 z m -0.359375,4.5 c -0.328125,0 -0.53125,-0.296875 -0.53125,-0.71875 0,-0.25 0.0625,-0.484375 0.265625,-1.28125 C 1.25,-2.25 1.25,-2.265625 1.390625,-2.421875 1.65625,-2.71875 1.96875,-2.875 2.21875,-2.875 c 0.265625,0 0.5,0.203125 0.5,0.671875 0,0.28125 -0.140625,1 -0.359375,1.40625 C 2.1875,-0.453125 1.84375,-0.125 1.484375,-0.125 Z m 0,0"
             id="path28" />
        </g>
        <g
           id="use17"
           transform="translate(300.99765,95.412003)">
          <path
             d="m 1.71875,-2.75 h 0.703125 c 0.140625,0 0.21875,0 0.21875,-0.15625 C 2.640625,-3 2.5625,-3 2.4375,-3 H 1.78125 l 0.25,-1.03125 C 2.046875,-4.0625 2.0625,-4.109375 2.0625,-4.125 c 0,-0.140625 -0.109375,-0.234375 -0.25,-0.234375 -0.171875,0 -0.265625,0.125 -0.328125,0.296875 C 1.4375,-3.875 1.53125,-4.21875 1.21875,-3 H 0.515625 c -0.125,0 -0.21875,0 -0.21875,0.15625 C 0.296875,-2.75 0.375,-2.75 0.5,-2.75 H 1.15625 L 0.75,-1.109375 C 0.703125,-0.9375 0.640625,-0.6875 0.640625,-0.59375 c 0,0.40625 0.359375,0.65625 0.75,0.65625 0.78125,0 1.21875,-0.96875 1.21875,-1.0625 0,-0.09375 -0.09375,-0.09375 -0.109375,-0.09375 -0.09375,0 -0.09375,0.015625 -0.15625,0.140625 -0.1875,0.4375 -0.546875,0.828125 -0.921875,0.828125 -0.15625,0 -0.25,-0.09375 -0.25,-0.34375 0,-0.0625 0.03125,-0.21875 0.046875,-0.28125 z m 0,0"
             id="path29" />
        </g>
        <g
           id="use18"
           transform="translate(304.00754,95.412003)">
          <path
             d="m 3.046875,-2.671875 c -0.25,0.046875 -0.34375,0.234375 -0.34375,0.390625 0,0.1875 0.140625,0.265625 0.265625,0.265625 0.15625,0 0.390625,-0.109375 0.390625,-0.453125 0,-0.46875 -0.53125,-0.609375 -0.90625,-0.609375 -1.046875,0 -2.015625,0.96875 -2.015625,1.9375 0,0.59375 0.40625,1.203125 1.28125,1.203125 1.1875,0 1.734375,-0.6875 1.734375,-0.78125 0,-0.046875 -0.0625,-0.125 -0.125,-0.125 -0.03125,0 -0.046875,0.015625 -0.109375,0.078125 C 2.671875,-0.125 1.859375,-0.125 1.734375,-0.125 c -0.5,0 -0.71875,-0.34375 -0.71875,-0.78125 0,-0.1875 0.09375,-0.953125 0.453125,-1.4375 0.265625,-0.34375 0.625,-0.53125 0.984375,-0.53125 0.09375,0 0.421875,0.015625 0.59375,0.203125 z m 0,0"
             id="path30" />
        </g>
      </g>
      <g
         fill="#000000"
         fill-opacity="1"
         id="g19"
         transform="matrix(0.705556,0,0,0.705556,-187.375,-60.9837)">
        <g
           id="use19"
           transform="translate(310.27899,93.917999)">
          <path
             d="m 1.90625,-2.5 c 0,-0.28125 -0.234375,-0.515625 -0.515625,-0.515625 -0.296875,0 -0.53125,0.234375 -0.53125,0.515625 0,0.296875 0.234375,0.53125 0.53125,0.53125 0.28125,0 0.515625,-0.234375 0.515625,-0.53125 z m 0,0"
             id="path31" />
        </g>
      </g>
      <g
         fill="#000000"
         fill-opacity="1"
         id="g21"
         transform="matrix(0.705556,0,0,0.705556,-187.375,-60.9837)">
        <g
           id="use20"
           transform="translate(315.26001,93.917999)">
          <path
             d="m 3.296875,2.390625 c 0,-0.03125 0,-0.046875 -0.171875,-0.21875 C 1.890625,0.921875 1.5625,-0.96875 1.5625,-2.5 c 0,-1.734375 0.375,-3.46875 1.609375,-4.703125 0.125,-0.125 0.125,-0.140625 0.125,-0.171875 0,-0.078125 -0.03125,-0.109375 -0.09375,-0.109375 -0.109375,0 -1,0.6875 -1.59375,1.953125 -0.5,1.09375 -0.625,2.203125 -0.625,3.03125 0,0.78125 0.109375,1.984375 0.65625,3.125 C 2.25,1.84375 3.09375,2.5 3.203125,2.5 c 0.0625,0 0.09375,-0.03125 0.09375,-0.109375 z m 0,0"
             id="path32" />
        </g>
        <g
           id="use21"
           transform="translate(319.13446,93.917999)">
          <path
             d="m 2.9375,-6.375 c 0,-0.25 0,-0.265625 -0.234375,-0.265625 C 2.078125,-6 1.203125,-6 0.890625,-6 v 0.3125 c 0.203125,0 0.78125,0 1.296875,-0.265625 v 5.171875 c 0,0.359375 -0.03125,0.46875 -0.921875,0.46875 h -0.3125 V 0 c 0.34375,-0.03125 1.203125,-0.03125 1.609375,-0.03125 0.390625,0 1.265625,0 1.609375,0.03125 v -0.3125 h -0.3125 c -0.90625,0 -0.921875,-0.109375 -0.921875,-0.46875 z m 0,0"
             id="path33" />
        </g>
      </g>
      <g
         fill="#000000"
         fill-opacity="1"
         id="g22"
         transform="matrix(0.705556,0,0,0.705556,-187.375,-60.9837)">
        <g
           id="use22"
           transform="translate(326.32745,93.917999)">
          <path
             d="m 4.078125,-2.296875 h 2.78125 C 7,-2.296875 7.1875,-2.296875 7.1875,-2.5 7.1875,-2.6875 7,-2.6875 6.859375,-2.6875 h -2.78125 v -2.796875 c 0,-0.140625 0,-0.328125 -0.203125,-0.328125 -0.203125,0 -0.203125,0.1875 -0.203125,0.328125 V -2.6875 h -2.78125 c -0.140625,0 -0.328125,0 -0.328125,0.1875 0,0.203125 0.1875,0.203125 0.328125,0.203125 h 2.78125 V 0.5 c 0,0.140625 0,0.328125 0.203125,0.328125 0.203125,0 0.203125,-0.1875 0.203125,-0.328125 z m 0,0"
             id="path34" />
        </g>
      </g>
      <g
         fill="#000000"
         fill-opacity="1"
         id="g23"
         transform="matrix(0.705556,0,0,0.705556,-187.375,-60.9837)">
        <g
           id="use23"
           transform="translate(336.293,93.917999)">
          <path
             d="m 3.65625,-3.984375 h 0.859375 c 0.203125,0 0.296875,0 0.296875,-0.203125 0,-0.109375 -0.09375,-0.109375 -0.265625,-0.109375 H 3.71875 L 3.921875,-5.4375 c 0.046875,-0.203125 0.1875,-0.90625 0.25,-1.03125 0.078125,-0.1875 0.25,-0.34375 0.46875,-0.34375 0.03125,0 0.296875,0 0.484375,0.1875 -0.4375,0.03125 -0.546875,0.390625 -0.546875,0.53125 0,0.234375 0.1875,0.359375 0.375,0.359375 C 5.21875,-5.734375 5.5,-5.96875 5.5,-6.34375 c 0,-0.453125 -0.453125,-0.6875 -0.859375,-0.6875 -0.34375,0 -0.96875,0.1875 -1.265625,1.171875 -0.0625,0.203125 -0.09375,0.3125 -0.328125,1.5625 h -0.6875 c -0.203125,0 -0.3125,0 -0.3125,0.1875 0,0.125 0.09375,0.125 0.28125,0.125 h 0.65625 L 2.25,-0.046875 c -0.1875,0.96875 -0.359375,1.875 -0.875,1.875 -0.046875,0 -0.28125,0 -0.484375,-0.1875 C 1.359375,1.609375 1.453125,1.25 1.453125,1.109375 1.453125,0.875 1.265625,0.75 1.078125,0.75 0.8125,0.75 0.53125,0.984375 0.53125,1.359375 c 0,0.4375 0.4375,0.6875 0.84375,0.6875 0.546875,0 0.953125,-0.59375 1.125,-0.96875 0.328125,-0.625 0.546875,-1.828125 0.5625,-1.90625 z m 0,0"
             id="path35" />
        </g>
      </g>
      <g
         fill="#000000"
         fill-opacity="1"
         id="g24"
         transform="matrix(0.705556,0,0,0.705556,-187.375,-60.9837)">
        <g
           id="use24"
           transform="translate(342.24301,93.917999)">
          <path
             d="m 2.875,-2.5 c 0,-0.765625 -0.109375,-1.96875 -0.65625,-3.109375 -0.59375,-1.21875 -1.453125,-1.875 -1.546875,-1.875 -0.0625,0 -0.109375,0.046875 -0.109375,0.109375 0,0.03125 0,0.046875 0.1875,0.234375 0.984375,0.984375 1.546875,2.5625 1.546875,4.640625 0,1.71875 -0.359375,3.46875 -1.59375,4.71875 C 0.5625,2.34375 0.5625,2.359375 0.5625,2.390625 0.5625,2.453125 0.609375,2.5 0.671875,2.5 0.765625,2.5 1.671875,1.8125 2.25,0.546875 2.765625,-0.546875 2.875,-1.65625 2.875,-2.5 Z m 0,0"
             id="path36" />
        </g>
      </g>
    </g>
    <rect
       style="fill:#cccccc;stroke:#1a1a1a;stroke-width:0.435;stroke-linejoin:round;stroke-dasharray:none"
       id="rect1-3"
       width="27.78125"
       height="10.583333"
       x="21.166664"
       y="52.380344" />
    <text
       xml:space="preserve"
       style="font-size:4.9389px;line-height:1.25;font-family:'Liberation Serif';-inkscape-font-specification:'Liberation Serif';stroke-width:0.264583"
       x="25.135416"
       y="58.994926"
       id="text1-5"><tspan
         sodipodi:role="line"
         id="tspan1-6"
         style="stroke-width:0.264583"
         x="25.135416"
         y="58.994926">BTC/USD</tspan></text>
    <text
       xml:space="preserve"
       style="font-size:16.9333px;line-height:1.25;font-family:'Liberation Serif';-inkscape-font-specification:'Liberation Serif';stroke-width:0.264583"
       x="15.43632"
       y="61.744106"
       id="text2"><tspan
         sodipodi:role="line"
         id="tspan2"
         style="font-size:16.9333px;stroke-width:0.264583"
         x="15.43632"
         y="61.744106">(</tspan></text>
    <text
       xml:space="preserve"
       style="font-size:16.9333px;line-height:1.25;font-family:'Liberation Serif';-inkscape-font-specification:'Liberation Serif';stroke-width:0.264583"
       x="49.704521"
       y="61.744106"
       id="text2-7"><tspan
         sodipodi:role="line"
         id="tspan2-0"
         style="font-size:16.9333px;stroke-width:0.264583"
         x="49.704521"
         y="61.744106">)<tspan
   style="font-size:65%;baseline-shift:super"
   id="tspan3">2</tspan></tspan></text>
    <g
       inkscape:label=""
       transform="matrix(0.6059235,0,0,0.6059235,64.449208,54.569139)"
       id="g44">
      <g
         fill="#000000"
         fill-opacity="1"
         id="g4"
         transform="matrix(0.705556,0,0,0.705556,-157.7,-59.4536)">
        <g
           id="g3"
           transform="translate(223.82401,93.917999)">
          <path
             d="M 0.453125,1.21875 C 0.375,1.5625 0.34375,1.625 -0.09375,1.625 c -0.109375,0 -0.21875,0 -0.21875,0.1875 0,0.078125 0.046875,0.125 0.125,0.125 0.265625,0 0.5625,-0.03125 0.828125,-0.03125 0.34375,0 0.671875,0.03125 1,0.03125 0.046875,0 0.171875,0 0.171875,-0.203125 C 1.8125,1.625 1.71875,1.625 1.578125,1.625 c -0.5,0 -0.5,-0.0625 -0.5,-0.15625 0,-0.125 0.421875,-1.75 0.484375,-2 0.125,0.296875 0.40625,0.640625 0.921875,0.640625 1.15625,0 2.40625,-1.453125 2.40625,-2.921875 0,-0.9375 -0.578125,-1.59375 -1.328125,-1.59375 -0.5,0 -0.984375,0.359375 -1.3125,0.75 -0.09375,-0.546875 -0.53125,-0.75 -0.890625,-0.75 -0.46875,0 -0.65625,0.390625 -0.734375,0.5625 C 0.4375,-3.5 0.3125,-2.90625 0.3125,-2.875 c 0,0.109375 0.09375,0.109375 0.109375,0.109375 0.109375,0 0.109375,-0.015625 0.171875,-0.234375 0.171875,-0.703125 0.375,-1.1875 0.734375,-1.1875 0.171875,0 0.3125,0.078125 0.3125,0.453125 0,0.234375 -0.03125,0.34375 -0.078125,0.515625 z m 1.75,-4.328125 C 2.265625,-3.375 2.546875,-3.65625 2.71875,-3.8125 c 0.359375,-0.296875 0.640625,-0.375 0.8125,-0.375 0.390625,0 0.640625,0.34375 0.640625,0.9375 0,0.59375 -0.328125,1.734375 -0.515625,2.109375 -0.34375,0.703125 -0.8125,1.03125 -1.1875,1.03125 C 1.8125,-0.109375 1.6875,-0.9375 1.6875,-1 c 0,-0.015625 0,-0.03125 0.03125,-0.15625 z m 0,0"
             id="path42" />
        </g>
      </g>
      <g
         fill="#000000"
         fill-opacity="1"
         id="g17"
         transform="matrix(0.705556,0,0,0.705556,-157.7,-59.4536)">
        <g
           id="g5"
           transform="translate(231.604,93.917999)">
          <path
             d="M 7.203125,-0.3125 C 7.15625,-0.3125 7,-0.296875 6.96875,-0.296875 c -0.78125,0 -1.3125,-0.78125 -1.65625,-1.296875 -0.09375,-0.171875 -0.375,-0.578125 -0.484375,-0.75 0.25,-0.53125 0.90625,-1.765625 2.09375,-1.765625 0.078125,0 0.171875,0 0.28125,0.015625 0,-0.25 -0.015625,-0.265625 -0.03125,-0.28125 -0.078125,-0.015625 -0.21875,-0.03125 -0.3125,-0.03125 -1.265625,0 -2,1.21875 -2.25,1.71875 C 4.21875,-3.296875 4.078125,-3.515625 3.703125,-3.828125 3.09375,-4.359375 2.546875,-4.40625 2.296875,-4.40625 c -1.09375,0 -1.734375,1.109375 -1.734375,2.265625 0,1.109375 0.609375,2.25 1.703125,2.25 1.265625,0 2.015625,-1.21875 2.25,-1.71875 0.40625,0.609375 0.53125,0.828125 0.90625,1.140625 0.609375,0.53125 1.15625,0.578125 1.40625,0.578125 0.125,0 0.28125,-0.015625 0.375,-0.046875 z m -2.90625,-1.640625 c -0.234375,0.53125 -0.90625,1.78125 -2.09375,1.78125 -0.96875,0 -1.421875,-1.0625 -1.421875,-1.96875 C 0.78125,-3.125 1.328125,-4 2.15625,-4 c 0.796875,0 1.328125,0.78125 1.65625,1.296875 0.109375,0.171875 0.375,0.578125 0.484375,0.75 z m 0,0"
             id="path43" />
        </g>
      </g>
      <g
         fill="#000000"
         fill-opacity="1"
         id="g7"
         transform="matrix(0.705556,0,0,0.705556,-157.7,-59.4536)">
        <g
           id="g6"
           transform="translate(242.12,93.917999)">
          <path
             d="m 3.296875,2.390625 c 0,-0.03125 0,-0.046875 -0.171875,-0.21875 C 1.890625,0.921875 1.5625,-0.96875 1.5625,-2.5 c 0,-1.734375 0.375,-3.46875 1.609375,-4.703125 0.125,-0.125 0.125,-0.140625 0.125,-0.171875 0,-0.078125 -0.03125,-0.109375 -0.09375,-0.109375 -0.109375,0 -1,0.6875 -1.59375,1.953125 -0.5,1.09375 -0.625,2.203125 -0.625,3.03125 0,0.78125 0.109375,1.984375 0.65625,3.125 C 2.25,1.84375 3.09375,2.5 3.203125,2.5 c 0.0625,0 0.09375,-0.03125 0.09375,-0.109375 z m 0,0"
             id="path44" />
        </g>
      </g>
      <g
         fill="#000000"
         fill-opacity="1"
         id="g9"
         transform="matrix(0.705556,0,0,0.705556,-157.7,-59.4536)">
        <g
           id="g8"
           transform="translate(245.994,87.223999)">
          <path
             d="m 3.875,8.515625 -1.75,-3.875 C 2.046875,4.484375 2,4.484375 1.96875,4.484375 c 0,0 -0.0625,0 -0.171875,0.078125 l -0.9375,0.71875 c -0.125,0.109375 -0.125,0.125 -0.125,0.15625 0,0.0625 0.015625,0.109375 0.09375,0.109375 0.0625,0 0.234375,-0.140625 0.34375,-0.21875 C 1.21875,5.28125 1.375,5.171875 1.484375,5.09375 l 1.96875,4.3125 C 3.515625,9.5625 3.5625,9.5625 3.65625,9.5625 c 0.15625,0 0.1875,-0.046875 0.25,-0.1875 L 8.4375,0 C 8.5,-0.140625 8.5,-0.171875 8.5,-0.203125 8.5,-0.296875 8.421875,-0.40625 8.296875,-0.40625 c -0.078125,0 -0.140625,0.0625 -0.21875,0.21875 z m 0,0"
             id="path45" />
        </g>
      </g>
      <path
         fill="none"
         stroke-width="0.398"
         stroke-linecap="butt"
         stroke-linejoin="miter"
         stroke="#000000"
         stroke-opacity="1"
         stroke-miterlimit="10"
         d="M 30.78537,2.7584381 H 46.367401"
         id="path19"
         transform="scale(0.705556)" />
      <g
         fill="#000000"
         fill-opacity="1"
         id="g20"
         transform="matrix(0.705556,0,0,0.705556,-157.7,-59.4536)">
        <g
           id="g10"
           transform="translate(254.29601,93.917999)">
          <path
             d="M 0.453125,1.21875 C 0.375,1.5625 0.34375,1.625 -0.09375,1.625 c -0.109375,0 -0.21875,0 -0.21875,0.1875 0,0.078125 0.046875,0.125 0.125,0.125 0.265625,0 0.5625,-0.03125 0.828125,-0.03125 0.34375,0 0.671875,0.03125 1,0.03125 0.046875,0 0.171875,0 0.171875,-0.203125 C 1.8125,1.625 1.71875,1.625 1.578125,1.625 c -0.5,0 -0.5,-0.0625 -0.5,-0.15625 0,-0.125 0.421875,-1.75 0.484375,-2 0.125,0.296875 0.40625,0.640625 0.921875,0.640625 1.15625,0 2.40625,-1.453125 2.40625,-2.921875 0,-0.9375 -0.578125,-1.59375 -1.328125,-1.59375 -0.5,0 -0.984375,0.359375 -1.3125,0.75 -0.09375,-0.546875 -0.53125,-0.75 -0.890625,-0.75 -0.46875,0 -0.65625,0.390625 -0.734375,0.5625 C 0.4375,-3.5 0.3125,-2.90625 0.3125,-2.875 c 0,0.109375 0.09375,0.109375 0.109375,0.109375 0.109375,0 0.109375,-0.015625 0.171875,-0.234375 0.171875,-0.703125 0.375,-1.1875 0.734375,-1.1875 0.171875,0 0.3125,0.078125 0.3125,0.453125 0,0.234375 -0.03125,0.34375 -0.078125,0.515625 z m 1.75,-4.328125 C 2.265625,-3.375 2.546875,-3.65625 2.71875,-3.8125 c 0.359375,-0.296875 0.640625,-0.375 0.8125,-0.375 0.390625,0 0.640625,0.34375 0.640625,0.9375 0,0.59375 -0.328125,1.734375 -0.515625,2.109375 -0.34375,0.703125 -0.8125,1.03125 -1.1875,1.03125 C 1.8125,-0.109375 1.6875,-0.9375 1.6875,-1 c 0,-0.015625 0,-0.03125 0.03125,-0.15625 z m 0,0"
             id="path46" />
        </g>
      </g>
      <g
         fill="#000000"
         fill-opacity="1"
         id="g26"
         transform="matrix(0.705556,0,0,0.705556,-157.7,-59.4536)">
        <g
           id="g11"
           transform="translate(259.30899,95.412003)">
          <path
             d="m 1.84375,-4.625 c 0,-0.015625 0.03125,-0.109375 0.03125,-0.109375 0,-0.046875 -0.03125,-0.109375 -0.125,-0.109375 -0.140625,0 -0.71875,0.0625 -0.890625,0.078125 -0.046875,0 -0.15625,0.015625 -0.15625,0.15625 0,0.09375 0.109375,0.09375 0.1875,0.09375 0.328125,0 0.328125,0.0625 0.328125,0.109375 0,0.046875 -0.0625,0.328125 -0.109375,0.484375 l -0.15625,0.640625 c -0.0625,0.25 -0.4375,1.765625 -0.453125,1.859375 -0.046875,0.171875 -0.046875,0.265625 -0.046875,0.34375 0,0.703125 0.453125,1.140625 1.03125,1.140625 0.875,0 1.796875,-0.9375 1.796875,-1.96875 0,-0.8125 -0.5625,-1.171875 -1.046875,-1.171875 -0.359375,0 -0.671875,0.203125 -0.875,0.390625 z m -0.359375,4.5 c -0.328125,0 -0.53125,-0.296875 -0.53125,-0.71875 0,-0.25 0.0625,-0.484375 0.265625,-1.28125 C 1.25,-2.25 1.25,-2.265625 1.390625,-2.421875 1.65625,-2.71875 1.96875,-2.875 2.21875,-2.875 c 0.265625,0 0.5,0.203125 0.5,0.671875 0,0.28125 -0.140625,1 -0.359375,1.40625 C 2.1875,-0.453125 1.84375,-0.125 1.484375,-0.125 Z m 0,0"
             id="path47" />
        </g>
        <g
           id="g12"
           transform="translate(262.81262,95.412003)">
          <path
             d="m 1.71875,-2.75 h 0.703125 c 0.140625,0 0.21875,0 0.21875,-0.15625 C 2.640625,-3 2.5625,-3 2.4375,-3 H 1.78125 l 0.25,-1.03125 C 2.046875,-4.0625 2.0625,-4.109375 2.0625,-4.125 c 0,-0.140625 -0.109375,-0.234375 -0.25,-0.234375 -0.171875,0 -0.265625,0.125 -0.328125,0.296875 C 1.4375,-3.875 1.53125,-4.21875 1.21875,-3 H 0.515625 c -0.125,0 -0.21875,0 -0.21875,0.15625 C 0.296875,-2.75 0.375,-2.75 0.5,-2.75 H 1.15625 L 0.75,-1.109375 C 0.703125,-0.9375 0.640625,-0.6875 0.640625,-0.59375 c 0,0.40625 0.359375,0.65625 0.75,0.65625 0.78125,0 1.21875,-0.96875 1.21875,-1.0625 0,-0.09375 -0.09375,-0.09375 -0.109375,-0.09375 -0.09375,0 -0.09375,0.015625 -0.15625,0.140625 -0.1875,0.4375 -0.546875,0.828125 -0.921875,0.828125 -0.15625,0 -0.25,-0.09375 -0.25,-0.34375 0,-0.0625 0.03125,-0.21875 0.046875,-0.28125 z m 0,0"
             id="path48" />
        </g>
        <g
           id="g25"
           transform="translate(265.82254,95.412003)">
          <path
             d="m 3.046875,-2.671875 c -0.25,0.046875 -0.34375,0.234375 -0.34375,0.390625 0,0.1875 0.140625,0.265625 0.265625,0.265625 0.15625,0 0.390625,-0.109375 0.390625,-0.453125 0,-0.46875 -0.53125,-0.609375 -0.90625,-0.609375 -1.046875,0 -2.015625,0.96875 -2.015625,1.9375 0,0.59375 0.40625,1.203125 1.28125,1.203125 1.1875,0 1.734375,-0.6875 1.734375,-0.78125 0,-0.046875 -0.0625,-0.125 -0.125,-0.125 -0.03125,0 -0.046875,0.015625 -0.109375,0.078125 C 2.671875,-0.125 1.859375,-0.125 1.734375,-0.125 c -0.5,0 -0.71875,-0.34375 -0.71875,-0.78125 0,-0.1875 0.09375,-0.953125 0.453125,-1.4375 0.265625,-0.34375 0.625,-0.53125 0.984375,-0.53125 0.09375,0 0.421875,0.015625 0.59375,0.203125 z m 0,0"
             id="path49" />
        </g>
      </g>
      <g
         fill="#000000"
         fill-opacity="1"
         id="g28"
         transform="matrix(0.705556,0,0,0.705556,-157.7,-59.4536)">
        <g
           id="g27"
           transform="translate(272.09399,93.917999)">
          <path
             d="m 1.90625,-2.5 c 0,-0.28125 -0.234375,-0.515625 -0.515625,-0.515625 -0.296875,0 -0.53125,0.234375 -0.53125,0.515625 0,0.296875 0.234375,0.53125 0.53125,0.53125 0.28125,0 0.515625,-0.234375 0.515625,-0.53125 z m 0,0"
             id="path50" />
        </g>
      </g>
      <g
         fill="#000000"
         fill-opacity="1"
         id="g30"
         transform="matrix(0.705556,0,0,0.705556,-157.7,-59.4536)">
        <g
           id="g29"
           transform="translate(277.07501,93.917999)">
          <path
             d="m 3.296875,2.390625 c 0,-0.03125 0,-0.046875 -0.171875,-0.21875 C 1.890625,0.921875 1.5625,-0.96875 1.5625,-2.5 c 0,-1.734375 0.375,-3.46875 1.609375,-4.703125 0.125,-0.125 0.125,-0.140625 0.125,-0.171875 0,-0.078125 -0.03125,-0.109375 -0.09375,-0.109375 -0.109375,0 -1,0.6875 -1.59375,1.953125 -0.5,1.09375 -0.625,2.203125 -0.625,3.03125 0,0.78125 0.109375,1.984375 0.65625,3.125 C 2.25,1.84375 3.09375,2.5 3.203125,2.5 c 0.0625,0 0.09375,-0.03125 0.09375,-0.109375 z m 0,0"
             id="path51" />
        </g>
        <g
           id="use25"
           transform="translate(280.94946,93.917999)">
          <path
             d="m 2.9375,-6.375 c 0,-0.25 0,-0.265625 -0.234375,-0.265625 C 2.078125,-6 1.203125,-6 0.890625,-6 v 0.3125 c 0.203125,0 0.78125,0 1.296875,-0.265625 v 5.171875 c 0,0.359375 -0.03125,0.46875 -0.921875,0.46875 h -0.3125 V 0 c 0.34375,-0.03125 1.203125,-0.03125 1.609375,-0.03125 0.390625,0 1.265625,0 1.609375,0.03125 v -0.3125 h -0.3125 c -0.90625,0 -0.921875,-0.109375 -0.921875,-0.46875 z m 0,0"
             id="path52" />
        </g>
      </g>
      <g
         fill="#000000"
         fill-opacity="1"
         id="g31"
         transform="matrix(0.705556,0,0,0.705556,-157.7,-59.4536)">
        <g
           id="use26"
           transform="translate(288.14246,93.917999)">
          <path
             d="m 4.078125,-2.296875 h 2.78125 C 7,-2.296875 7.1875,-2.296875 7.1875,-2.5 7.1875,-2.6875 7,-2.6875 6.859375,-2.6875 h -2.78125 v -2.796875 c 0,-0.140625 0,-0.328125 -0.203125,-0.328125 -0.203125,0 -0.203125,0.1875 -0.203125,0.328125 V -2.6875 h -2.78125 c -0.140625,0 -0.328125,0 -0.328125,0.1875 0,0.203125 0.1875,0.203125 0.328125,0.203125 h 2.78125 V 0.5 c 0,0.140625 0,0.328125 0.203125,0.328125 0.203125,0 0.203125,-0.1875 0.203125,-0.328125 z m 0,0"
             id="path53" />
        </g>
      </g>
      <g
         fill="#000000"
         fill-opacity="1"
         id="g32"
         transform="matrix(0.705556,0,0,0.705556,-157.7,-59.4536)">
        <g
           id="use27"
           transform="translate(298.108,93.917999)">
          <path
             d="m 3.65625,-3.984375 h 0.859375 c 0.203125,0 0.296875,0 0.296875,-0.203125 0,-0.109375 -0.09375,-0.109375 -0.265625,-0.109375 H 3.71875 L 3.921875,-5.4375 c 0.046875,-0.203125 0.1875,-0.90625 0.25,-1.03125 0.078125,-0.1875 0.25,-0.34375 0.46875,-0.34375 0.03125,0 0.296875,0 0.484375,0.1875 -0.4375,0.03125 -0.546875,0.390625 -0.546875,0.53125 0,0.234375 0.1875,0.359375 0.375,0.359375 C 5.21875,-5.734375 5.5,-5.96875 5.5,-6.34375 c 0,-0.453125 -0.453125,-0.6875 -0.859375,-0.6875 -0.34375,0 -0.96875,0.1875 -1.265625,1.171875 -0.0625,0.203125 -0.09375,0.3125 -0.328125,1.5625 h -0.6875 c -0.203125,0 -0.3125,0 -0.3125,0.1875 0,0.125 0.09375,0.125 0.28125,0.125 h 0.65625 L 2.25,-0.046875 c -0.1875,0.96875 -0.359375,1.875 -0.875,1.875 -0.046875,0 -0.28125,0 -0.484375,-0.1875 C 1.359375,1.609375 1.453125,1.25 1.453125,1.109375 1.453125,0.875 1.265625,0.75 1.078125,0.75 0.8125,0.75 0.53125,0.984375 0.53125,1.359375 c 0,0.4375 0.4375,0.6875 0.84375,0.6875 0.546875,0 0.953125,-0.59375 1.125,-0.96875 0.328125,-0.625 0.546875,-1.828125 0.5625,-1.90625 z m 0,0"
             id="path54" />
        </g>
      </g>
      <g
         fill="#000000"
         fill-opacity="1"
         id="g33"
         transform="matrix(0.705556,0,0,0.705556,-157.7,-59.4536)">
        <g
           id="use28"
           transform="translate(304.05801,93.917999)">
          <path
             d="m 2.875,-2.5 c 0,-0.765625 -0.109375,-1.96875 -0.65625,-3.109375 -0.59375,-1.21875 -1.453125,-1.875 -1.546875,-1.875 -0.0625,0 -0.109375,0.046875 -0.109375,0.109375 0,0.03125 0,0.046875 0.1875,0.234375 0.984375,0.984375 1.546875,2.5625 1.546875,4.640625 0,1.71875 -0.359375,3.46875 -1.59375,4.71875 C 0.5625,2.34375 0.5625,2.359375 0.5625,2.390625 0.5625,2.453125 0.609375,2.5 0.671875,2.5 0.765625,2.5 1.671875,1.8125 2.25,0.546875 2.765625,-0.546875 2.875,-1.65625 2.875,-2.5 Z m 0,0"
             id="path55" />
        </g>
        <g
           id="use29"
           transform="translate(307.93246,93.917999)">
          <path
             d="m 2.875,-2.5 c 0,-0.765625 -0.109375,-1.96875 -0.65625,-3.109375 -0.59375,-1.21875 -1.453125,-1.875 -1.546875,-1.875 -0.0625,0 -0.109375,0.046875 -0.109375,0.109375 0,0.03125 0,0.046875 0.1875,0.234375 0.984375,0.984375 1.546875,2.5625 1.546875,4.640625 0,1.71875 -0.359375,3.46875 -1.59375,4.71875 C 0.5625,2.34375 0.5625,2.359375 0.5625,2.390625 0.5625,2.453125 0.609375,2.5 0.671875,2.5 0.765625,2.5 1.671875,1.8125 2.25,0.546875 2.765625,-0.546875 2.875,-1.65625 2.875,-2.5 Z m 0,0"
             id="path56" />
        </g>
      </g>
      <g
         fill="#000000"
         fill-opacity="1"
         id="g34"
         transform="matrix(0.705556,0,0,0.705556,-157.7,-59.4536)">
        <g
           id="use30"
           transform="translate(311.806,88.889999)">
          <path
             d="M 3.515625,-1.265625 H 3.28125 c -0.015625,0.15625 -0.09375,0.5625 -0.1875,0.625 C 3.046875,-0.59375 2.515625,-0.59375 2.40625,-0.59375 H 1.125 c 0.734375,-0.640625 0.984375,-0.84375 1.390625,-1.171875 0.515625,-0.40625 1,-0.84375 1,-1.5 0,-0.84375 -0.734375,-1.359375 -1.625,-1.359375 -0.859375,0 -1.453125,0.609375 -1.453125,1.25 0,0.34375 0.296875,0.390625 0.375,0.390625 0.15625,0 0.359375,-0.125 0.359375,-0.375 0,-0.125 -0.046875,-0.375 -0.40625,-0.375 C 0.984375,-4.21875 1.453125,-4.375 1.78125,-4.375 c 0.703125,0 1.0625,0.546875 1.0625,1.109375 0,0.609375 -0.4375,1.078125 -0.65625,1.328125 L 0.515625,-0.265625 C 0.4375,-0.203125 0.4375,-0.1875 0.4375,0 h 2.875 z m 0,0"
             id="path57" />
        </g>
      </g>
      <g
         fill="#000000"
         fill-opacity="1"
         id="g35"
         transform="matrix(0.705556,0,0,0.705556,-157.7,-59.4536)">
        <g
           id="use31"
           transform="translate(319.043,93.917999)">
          <path
             d="m 7.203125,-4.5 c 0,-0.21875 -0.078125,-0.3125 -0.140625,-0.3125 -0.046875,0 -0.140625,0.046875 -0.140625,0.28125 C 6.875,-3.84375 6.1875,-3.4375 5.53125,-3.4375 4.953125,-3.4375 4.453125,-3.75 3.9375,-4.09375 3.40625,-4.453125 2.859375,-4.8125 2.21875,-4.8125 c -0.9375,0 -1.671875,0.703125 -1.671875,1.625 0,0.21875 0.078125,0.296875 0.140625,0.296875 0.09375,0 0.140625,-0.1875 0.140625,-0.234375 C 0.875,-3.953125 1.6875,-4.25 2.21875,-4.25 c 0.578125,0 1.078125,0.296875 1.59375,0.65625 0.53125,0.359375 1.078125,0.71875 1.71875,0.71875 0.921875,0 1.671875,-0.71875 1.671875,-1.625 z m 0,2.328125 c 0,-0.296875 -0.125,-0.3125 -0.140625,-0.3125 -0.046875,0 -0.140625,0.046875 -0.140625,0.265625 C 6.875,-1.53125 6.1875,-1.109375 5.53125,-1.109375 c -0.578125,0 -1.078125,-0.3125 -1.59375,-0.671875 C 3.40625,-2.140625 2.859375,-2.5 2.21875,-2.5 c -0.9375,0 -1.671875,0.71875 -1.671875,1.625 0,0.234375 0.078125,0.3125 0.140625,0.3125 0.09375,0 0.140625,-0.1875 0.140625,-0.234375 C 0.875,-1.640625 1.6875,-1.9375 2.21875,-1.9375 c 0.578125,0 1.078125,0.3125 1.59375,0.65625 0.53125,0.359375 1.078125,0.71875 1.71875,0.71875 0.953125,0 1.671875,-0.734375 1.671875,-1.609375 z m 0,0"
             id="path58" />
        </g>
      </g>
      <g
         fill="#000000"
         fill-opacity="1"
         id="g36"
         transform="matrix(0.705556,0,0,0.705556,-157.7,-59.4536)">
        <g
           id="use32"
           transform="translate(329.55899,93.917999)">
          <path
             d="M 0.453125,1.21875 C 0.375,1.5625 0.34375,1.625 -0.09375,1.625 c -0.109375,0 -0.21875,0 -0.21875,0.1875 0,0.078125 0.046875,0.125 0.125,0.125 0.265625,0 0.5625,-0.03125 0.828125,-0.03125 0.34375,0 0.671875,0.03125 1,0.03125 0.046875,0 0.171875,0 0.171875,-0.203125 C 1.8125,1.625 1.71875,1.625 1.578125,1.625 c -0.5,0 -0.5,-0.0625 -0.5,-0.15625 0,-0.125 0.421875,-1.75 0.484375,-2 0.125,0.296875 0.40625,0.640625 0.921875,0.640625 1.15625,0 2.40625,-1.453125 2.40625,-2.921875 0,-0.9375 -0.578125,-1.59375 -1.328125,-1.59375 -0.5,0 -0.984375,0.359375 -1.3125,0.75 -0.09375,-0.546875 -0.53125,-0.75 -0.890625,-0.75 -0.46875,0 -0.65625,0.390625 -0.734375,0.5625 C 0.4375,-3.5 0.3125,-2.90625 0.3125,-2.875 c 0,0.109375 0.09375,0.109375 0.109375,0.109375 0.109375,0 0.109375,-0.015625 0.171875,-0.234375 0.171875,-0.703125 0.375,-1.1875 0.734375,-1.1875 0.171875,0 0.3125,0.078125 0.3125,0.453125 0,0.234375 -0.03125,0.34375 -0.078125,0.515625 z m 1.75,-4.328125 C 2.265625,-3.375 2.546875,-3.65625 2.71875,-3.8125 c 0.359375,-0.296875 0.640625,-0.375 0.8125,-0.375 0.390625,0 0.640625,0.34375 0.640625,0.9375 0,0.59375 -0.328125,1.734375 -0.515625,2.109375 -0.34375,0.703125 -0.8125,1.03125 -1.1875,1.03125 C 1.8125,-0.109375 1.6875,-0.9375 1.6875,-1 c 0,-0.015625 0,-0.03125 0.03125,-0.15625 z m 0,0"
             id="path59" />
        </g>
      </g>
      <g
         fill="#000000"
         fill-opacity="1"
         id="g37"
         transform="matrix(0.705556,0,0,0.705556,-157.7,-59.4536)">
        <g
           id="use33"
           transform="translate(334.57199,95.412003)">
          <path
             d="m 1.84375,-4.625 c 0,-0.015625 0.03125,-0.109375 0.03125,-0.109375 0,-0.046875 -0.03125,-0.109375 -0.125,-0.109375 -0.140625,0 -0.71875,0.0625 -0.890625,0.078125 -0.046875,0 -0.15625,0.015625 -0.15625,0.15625 0,0.09375 0.109375,0.09375 0.1875,0.09375 0.328125,0 0.328125,0.0625 0.328125,0.109375 0,0.046875 -0.0625,0.328125 -0.109375,0.484375 l -0.15625,0.640625 c -0.0625,0.25 -0.4375,1.765625 -0.453125,1.859375 -0.046875,0.171875 -0.046875,0.265625 -0.046875,0.34375 0,0.703125 0.453125,1.140625 1.03125,1.140625 0.875,0 1.796875,-0.9375 1.796875,-1.96875 0,-0.8125 -0.5625,-1.171875 -1.046875,-1.171875 -0.359375,0 -0.671875,0.203125 -0.875,0.390625 z m -0.359375,4.5 c -0.328125,0 -0.53125,-0.296875 -0.53125,-0.71875 0,-0.25 0.0625,-0.484375 0.265625,-1.28125 C 1.25,-2.25 1.25,-2.265625 1.390625,-2.421875 1.65625,-2.71875 1.96875,-2.875 2.21875,-2.875 c 0.265625,0 0.5,0.203125 0.5,0.671875 0,0.28125 -0.140625,1 -0.359375,1.40625 C 2.1875,-0.453125 1.84375,-0.125 1.484375,-0.125 Z m 0,0"
             id="path60" />
        </g>
        <g
           id="use34"
           transform="translate(338.07562,95.412003)">
          <path
             d="m 1.71875,-2.75 h 0.703125 c 0.140625,0 0.21875,0 0.21875,-0.15625 C 2.640625,-3 2.5625,-3 2.4375,-3 H 1.78125 l 0.25,-1.03125 C 2.046875,-4.0625 2.0625,-4.109375 2.0625,-4.125 c 0,-0.140625 -0.109375,-0.234375 -0.25,-0.234375 -0.171875,0 -0.265625,0.125 -0.328125,0.296875 C 1.4375,-3.875 1.53125,-4.21875 1.21875,-3 H 0.515625 c -0.125,0 -0.21875,0 -0.21875,0.15625 C 0.296875,-2.75 0.375,-2.75 0.5,-2.75 H 1.15625 L 0.75,-1.109375 C 0.703125,-0.9375 0.640625,-0.6875 0.640625,-0.59375 c 0,0.40625 0.359375,0.65625 0.75,0.65625 0.78125,0 1.21875,-0.96875 1.21875,-1.0625 0,-0.09375 -0.09375,-0.09375 -0.109375,-0.09375 -0.09375,0 -0.09375,0.015625 -0.15625,0.140625 -0.1875,0.4375 -0.546875,0.828125 -0.921875,0.828125 -0.15625,0 -0.25,-0.09375 -0.25,-0.34375 0,-0.0625 0.03125,-0.21875 0.046875,-0.28125 z m 0,0"
             id="path61" />
        </g>
        <g
           id="use35"
           transform="translate(341.08554,95.412003)">
          <path
             d="m 3.046875,-2.671875 c -0.25,0.046875 -0.34375,0.234375 -0.34375,0.390625 0,0.1875 0.140625,0.265625 0.265625,0.265625 0.15625,0 0.390625,-0.109375 0.390625,-0.453125 0,-0.46875 -0.53125,-0.609375 -0.90625,-0.609375 -1.046875,0 -2.015625,0.96875 -2.015625,1.9375 0,0.59375 0.40625,1.203125 1.28125,1.203125 1.1875,0 1.734375,-0.6875 1.734375,-0.78125 0,-0.046875 -0.0625,-0.125 -0.125,-0.125 -0.03125,0 -0.046875,0.015625 -0.109375,0.078125 C 2.671875,-0.125 1.859375,-0.125 1.734375,-0.125 c -0.5,0 -0.71875,-0.34375 -0.71875,-0.78125 0,-0.1875 0.09375,-0.953125 0.453125,-1.4375 0.265625,-0.34375 0.625,-0.53125 0.984375,-0.53125 0.09375,0 0.421875,0.015625 0.59375,0.203125 z m 0,0"
             id="path62" />
        </g>
      </g>
      <g
         fill="#000000"
         fill-opacity="1"
         id="g38"
         transform="matrix(0.705556,0,0,0.705556,-157.7,-59.4536)">
        <g
           id="use36"
           transform="translate(347.35699,93.917999)">
          <path
             d="m 1.90625,-2.5 c 0,-0.28125 -0.234375,-0.515625 -0.515625,-0.515625 -0.296875,0 -0.53125,0.234375 -0.53125,0.515625 0,0.296875 0.234375,0.53125 0.53125,0.53125 0.28125,0 0.515625,-0.234375 0.515625,-0.53125 z m 0,0"
             id="path63" />
        </g>
      </g>
      <g
         fill="#000000"
         fill-opacity="1"
         id="g39"
         transform="matrix(0.705556,0,0,0.705556,-157.7,-59.4536)">
        <g
           id="use37"
           transform="translate(352.33801,93.917999)">
          <path
             d="m 3.296875,2.390625 c 0,-0.03125 0,-0.046875 -0.171875,-0.21875 C 1.890625,0.921875 1.5625,-0.96875 1.5625,-2.5 c 0,-1.734375 0.375,-3.46875 1.609375,-4.703125 0.125,-0.125 0.125,-0.140625 0.125,-0.171875 0,-0.078125 -0.03125,-0.109375 -0.09375,-0.109375 -0.109375,0 -1,0.6875 -1.59375,1.953125 -0.5,1.09375 -0.625,2.203125 -0.625,3.03125 0,0.78125 0.109375,1.984375 0.65625,3.125 C 2.25,1.84375 3.09375,2.5 3.203125,2.5 c 0.0625,0 0.09375,-0.03125 0.09375,-0.109375 z m 0,0"
             id="path64" />
        </g>
        <g
           id="use38"
           transform="translate(356.21246,93.917999)">
          <path
             d="m 2.9375,-6.375 c 0,-0.25 0,-0.265625 -0.234375,-0.265625 C 2.078125,-6 1.203125,-6 0.890625,-6 v 0.3125 c 0.203125,0 0.78125,0 1.296875,-0.265625 v 5.171875 c 0,0.359375 -0.03125,0.46875 -0.921875,0.46875 h -0.3125 V 0 c 0.34375,-0.03125 1.203125,-0.03125 1.609375,-0.03125 0.390625,0 1.265625,0 1.609375,0.03125 v -0.3125 h -0.3125 c -0.90625,0 -0.921875,-0.109375 -0.921875,-0.46875 z m 0,0"
             id="path65" />
        </g>
      </g>
      <g
         fill="#000000"
         fill-opacity="1"
         id="g40"
         transform="matrix(0.705556,0,0,0.705556,-157.7,-59.4536)">
        <g
           id="use39"
           transform="translate(363.40546,93.917999)">
          <path
             d="m 4.078125,-2.296875 h 2.78125 C 7,-2.296875 7.1875,-2.296875 7.1875,-2.5 7.1875,-2.6875 7,-2.6875 6.859375,-2.6875 h -2.78125 v -2.796875 c 0,-0.140625 0,-0.328125 -0.203125,-0.328125 -0.203125,0 -0.203125,0.1875 -0.203125,0.328125 V -2.6875 h -2.78125 c -0.140625,0 -0.328125,0 -0.328125,0.1875 0,0.203125 0.1875,0.203125 0.328125,0.203125 h 2.78125 V 0.5 c 0,0.140625 0,0.328125 0.203125,0.328125 0.203125,0 0.203125,-0.1875 0.203125,-0.328125 z m 0,0"
             id="path66" />
        </g>
      </g>
      <g
         fill="#000000"
         fill-opacity="1"
         id="g41"
         transform="matrix(0.705556,0,0,0.705556,-157.7,-59.4536)">
        <g
           id="use40"
           transform="translate(373.36606,93.917999)">
          <path
             d="m 1.265625,-0.765625 1.0625,-1.03125 c 1.546875,-1.375 2.140625,-1.90625 2.140625,-2.90625 0,-1.140625 -0.890625,-1.9375 -2.109375,-1.9375 -1.125,0 -1.859375,0.921875 -1.859375,1.8125 0,0.546875 0.5,0.546875 0.53125,0.546875 0.171875,0 0.515625,-0.109375 0.515625,-0.53125 0,-0.25 -0.1875,-0.515625 -0.53125,-0.515625 -0.078125,0 -0.09375,0 -0.125,0.015625 0.21875,-0.65625 0.765625,-1.015625 1.34375,-1.015625 0.90625,0 1.328125,0.8125 1.328125,1.625 C 3.5625,-3.90625 3.078125,-3.125 2.515625,-2.5 l -1.90625,2.125 C 0.5,-0.265625 0.5,-0.234375 0.5,0 H 4.203125 L 4.46875,-1.734375 H 4.234375 C 4.171875,-1.4375 4.109375,-1 4,-0.84375 3.9375,-0.765625 3.28125,-0.765625 3.0625,-0.765625 Z m 0,0"
             id="path67" />
        </g>
      </g>
      <g
         fill="#000000"
         fill-opacity="1"
         id="g42"
         transform="matrix(0.705556,0,0,0.705556,-157.7,-59.4536)">
        <g
           id="use41"
           transform="translate(378.35199,93.917999)">
          <path
             d="m 3.65625,-3.984375 h 0.859375 c 0.203125,0 0.296875,0 0.296875,-0.203125 0,-0.109375 -0.09375,-0.109375 -0.265625,-0.109375 H 3.71875 L 3.921875,-5.4375 c 0.046875,-0.203125 0.1875,-0.90625 0.25,-1.03125 0.078125,-0.1875 0.25,-0.34375 0.46875,-0.34375 0.03125,0 0.296875,0 0.484375,0.1875 -0.4375,0.03125 -0.546875,0.390625 -0.546875,0.53125 0,0.234375 0.1875,0.359375 0.375,0.359375 C 5.21875,-5.734375 5.5,-5.96875 5.5,-6.34375 c 0,-0.453125 -0.453125,-0.6875 -0.859375,-0.6875 -0.34375,0 -0.96875,0.1875 -1.265625,1.171875 -0.0625,0.203125 -0.09375,0.3125 -0.328125,1.5625 h -0.6875 c -0.203125,0 -0.3125,0 -0.3125,0.1875 0,0.125 0.09375,0.125 0.28125,0.125 h 0.65625 L 2.25,-0.046875 c -0.1875,0.96875 -0.359375,1.875 -0.875,1.875 -0.046875,0 -0.28125,0 -0.484375,-0.1875 C 1.359375,1.609375 1.453125,1.25 1.453125,1.109375 1.453125,0.875 1.265625,0.75 1.078125,0.75 0.8125,0.75 0.53125,0.984375 0.53125,1.359375 c 0,0.4375 0.4375,0.6875 0.84375,0.6875 0.546875,0 0.953125,-0.59375 1.125,-0.96875 0.328125,-0.625 0.546875,-1.828125 0.5625,-1.90625 z m 0,0"
             id="path68" />
        </g>
      </g>
      <g
         fill="#000000"
         fill-opacity="1"
         id="g43"
         transform="matrix(0.705556,0,0,0.705556,-157.7,-59.4536)">
        <g
           id="use42"
           transform="translate(384.302,93.917999)">
          <path
             d="m 2.875,-2.5 c 0,-0.765625 -0.109375,-1.96875 -0.65625,-3.109375 -0.59375,-1.21875 -1.453125,-1.875 -1.546875,-1.875 -0.0625,0 -0.109375,0.046875 -0.109375,0.109375 0,0.03125 0,0.046875 0.1875,0.234375 0.984375,0.984375 1.546875,2.5625 1.546875,4.640625 0,1.71875 -0.359375,3.46875 -1.59375,4.71875 C 0.5625,2.34375 0.5625,2.359375 0.5625,2.390625 0.5625,2.453125 0.609375,2.5 0.671875,2.5 0.765625,2.5 1.671875,1.8125 2.25,0.546875 2.765625,-0.546875 2.875,-1.65625 2.875,-2.5 Z m 0,0"
             id="path69" />
        </g>
      </g>
    </g>
    <rect
       style="fill:#cccccc;stroke:#1a1a1a;stroke-width:0.434999;stroke-linejoin:round;stroke-dasharray:none"
       id="rect44"
       width="39.6875"
       height="39.6875"
       x="15.875"
       y="76.729164" />
    <text
       xml:space="preserve"
       style="font-size:4.9389px;line-height:1.25;font-family:'Liberation Serif';-inkscape-font-specification:'Liberation Serif';stroke-width:0.264583"
       x="25.135416"
       y="84.49398"
       id="text1-9"><tspan
         sodipodi:role="line"
         id="tspan1-2"
         style="stroke-width:0.264583"
         x="25.135416"
         y="84.49398">BTC/USD</tspan></text>
    <rect
       style="fill:#ffffff;stroke:#1a1a1a;stroke-width:0.434999;stroke-linejoin:round;stroke-dasharray:none"
       id="rect45"
       width="37.041668"
       height="19.84375"
       x="17.197916"
       y="95.25" />
    <text
       xml:space="preserve"
       style="font-size:4.9389px;line-height:1.25;font-family:'Liberation Serif';-inkscape-font-specification:'Liberation Serif';stroke-width:0.264583"
       x="26.722921"
       y="105.83333"
       id="text45"><tspan
         sodipodi:role="line"
         id="tspan45"
         style="stroke-width:0.264583"
         x="26.722921"
         y="105.83333">USD loan</tspan></text>
    <text
       xml:space="preserve"
       style="font-size:4.9389px;line-height:1.25;font-family:'Liberation Serif';-inkscape-font-specification:'Liberation Serif';stroke-width:0.264583"
       x="61.998627"
       y="96.844391"
       id="text46"><tspan
         sodipodi:role="line"
         id="tspan46"
         style="stroke-width:0.264583"
         x="61.998627"
         y="96.844391">debt ≈ usd part of collateral</tspan></text>
  </g>
</svg>
